<?xml version="1.0" encoding="UTF-8"?>
<svg version="1.1" xmlns="http://www.w3.org/2000/svg" width="1175" height="1381">
<path d="M0 0 C3.29534913 0.46233033 6.59021286 0.92803891 9.88500977 1.39428711 C11.26374142 1.58765781 11.26374142 1.58765781 12.67032623 1.784935 C20.41008898 2.8828333 28.11006623 4.16240029 35.79418945 5.59863281 C36.63003571 5.75481079 37.46588196 5.91098877 38.32705688 6.07189941 C39.18850311 6.23379761 40.04994934 6.3956958 40.9375 6.5625 C42.29770767 6.81719055 42.29770767 6.81719055 43.68539429 7.07702637 C113.82142386 20.25975624 184.47074109 37.16122254 250 66 C251.7953418 66.78769775 251.7953418 66.78769775 253.62695312 67.59130859 C284.48782226 81.17891208 314.91595221 95.91079676 344 113 C345.49804155 113.8657201 346.99671803 114.73034265 348.49609375 115.59375 C386.28913758 137.45724651 422.19257652 162.78490901 455.40625 191.10913086 C458.8521565 194.04603206 462.34899912 196.91001018 465.875 199.75 C469.58302605 202.76578964 473.01064002 205.88825217 476.328125 209.32421875 C478.12570925 211.12600297 480.00660302 212.77977256 481.9375 214.4375 C484.74576347 216.85617779 487.39970593 219.35899683 490 222 C492.49939764 224.53814799 495.03781792 226.94128303 497.75 229.25 C505.51469767 235.94264868 512.71810402 243.33874356 519.359375 251.140625 C521.16147789 253.18300828 523.05938947 255.08901711 525 257 C528.21434731 260.1711603 531.21750963 263.45582753 534.16015625 266.87890625 C536.19508819 269.22491058 538.28290967 271.5173645 540.375 273.8125 C544.37171746 278.23816669 548.16216504 282.80357752 551.9140625 287.4375 C554.55141268 290.67739086 557.26408759 293.84317799 560 297 C563.80395301 293.29322827 567.31136173 289.42091688 570.75 285.375 C571.27875732 284.7567334 571.80751465 284.1384668 572.35229492 283.50146484 C575.40170359 279.92343045 578.37886761 276.29899882 581.3125 272.625 C585.7815178 267.1102157 590.61882133 261.97177291 595.5090332 256.83251953 C598.60698438 253.57406763 601.64447691 250.28773208 604.5859375 246.88671875 C607.58339662 243.43202723 610.72634751 240.19122825 614 237 C617.94478121 233.10894743 621.69497268 229.14356351 625.296875 224.9296875 C630.39290725 219.1557427 635.99490998 213.94858309 641.8359375 208.9453125 C644.48977856 206.55972974 646.99454875 204.03881165 649.5 201.5 C653.8382046 197.1162538 658.30667374 192.99830789 663 189 C664.14816177 188.00117859 665.29518902 187.00105231 666.44140625 186 C673.85409801 179.53089739 681.31231897 173.14216798 689 167 C689.58958496 166.52046875 690.17916992 166.0409375 690.78662109 165.546875 C718.02708685 143.43153078 748.11002789 126.32832952 779.07226562 110.06591797 C782.60073268 108.21213216 786.12122853 106.34361213 789.640625 104.47265625 C803.69556481 97.03552815 817.97454509 90.18908689 832.45263672 83.61621094 C835.92546126 82.03396053 839.38705459 80.42908884 842.84765625 78.8203125 C923.69120018 41.52944245 1012.17063252 19.11614554 1099.5 3.22265625 C1100.17619385 3.09652451 1100.8523877 2.97039276 1101.54907227 2.84043884 C1105.42133195 2.15421834 1109.07550979 1.95585207 1113 2 C1113.22928264 40.02205817 1113.40529569 78.04401154 1113.51065329 116.0666221 C1113.52315918 120.56354021 1113.53610252 125.06045696 1113.54931641 129.55737305 C1113.55193951 130.4525642 1113.55456261 131.34775534 1113.55726521 132.2700735 C1113.60068534 146.73276981 1113.67947883 161.19506544 1113.77152796 175.65752468 C1113.86530412 190.51612447 1113.92064256 205.37451556 1113.94088495 220.23339909 C1113.95455279 229.38986496 1113.99759282 238.545198 1114.07916467 247.70131483 C1114.13234799 253.99452716 1114.14792907 260.28716067 1114.13501377 266.58058099 C1114.1286574 270.20286131 1114.13784369 273.82317389 1114.19205475 277.44509697 C1114.42487323 293.80424106 1113.51256236 306.37273402 1104.21180797 320.18365324 C1102.4444421 322.83271098 1100.92517582 325.59407562 1099.375 328.375 C1098.25737474 330.25440517 1097.13232163 332.12941246 1096 334 C1095.06631592 335.54796265 1095.06631592 335.54796265 1094.11376953 337.12719727 C1074.58116422 369.18965353 1052.41918416 399.56856547 1028.09423828 428.15185547 C1025.09249326 431.68462172 1022.15825274 435.26441412 1019.25 438.875 C1016.26545398 442.54461086 1013.18523735 445.9490691 1009.77552795 449.223526 C1008.03157371 450.96840947 1006.43335641 452.77673625 1004.83374023 454.65405273 C1000.84019161 459.24717567 996.59320421 463.55093391 992.28515625 467.84765625 C991.47058456 468.66318466 990.65601288 469.47871307 989.8167572 470.31895447 C988.10440807 472.03198008 986.39081158 473.74375965 984.67602539 475.4543457 C982.06997985 478.05503552 979.46931478 480.66101956 976.86914062 483.26757812 C975.19563301 484.94042486 973.52181518 486.61296134 971.84765625 488.28515625 C971.0797023 489.05513443 970.31174835 489.82511261 969.52052307 490.61842346 C965.39708024 494.72424438 961.19449792 498.67348998 956.77655029 502.46156311 C953.8318523 505.01157931 951.02047996 507.70240828 948.1875 510.375 C943.14434182 515.09873109 937.97309024 519.56834291 932.578125 523.890625 C929.9757371 526.01985146 927.48424498 528.23449357 925 530.5 C919.82453026 535.20423388 914.4485611 539.61715487 909 544 C907.89043217 544.90210662 906.78106559 545.80446083 905.671875 546.70703125 C895.32790481 555.08995115 884.70635788 563.08724965 874 571 C873.25379395 571.55300781 872.50758789 572.10601563 871.73876953 572.67578125 C845.31192642 592.20634096 817.5048801 609.68720722 789 626 C788.21302734 626.45084961 787.42605469 626.90169922 786.61523438 627.36621094 C759.10947202 643.05404779 730.65038623 657.16884986 701.625 669.8125 C700.47475342 670.31531494 699.32450684 670.81812988 698.1394043 671.33618164 C680.07139477 679.11297788 661.57496746 685.61612931 642.93389893 691.86865234 C636.80188478 693.92566236 630.67430733 695.99579473 624.546875 698.06640625 C623.3201004 698.48076935 622.09332581 698.89513245 620.82937622 699.322052 C607.2926809 703.90240536 593.80349289 708.61698899 580.32568359 713.36743164 C559.10355522 720.83913996 559.10355522 720.83913996 547.70556641 722.45458984 C543.50981106 723.0721493 539.34201208 723.80267999 535.16796875 724.55078125 C511.98577866 728.66836211 488.80381469 732.2345607 465.38934326 734.74285889 C463.09885695 734.98936102 460.8094669 735.2445468 458.52001953 735.50048828 C435.33591401 738.03640602 412.11069777 738.30962012 388.81243896 738.36791611 C386.48292161 738.37486452 384.1534677 738.38651672 381.82397461 738.39907837 C355.25946269 738.52258384 329.01889755 737.05127157 302.8125 732.375 C302.10695984 732.25094788 301.40141968 732.12689575 300.67449951 731.99908447 C227.12063696 718.9733104 150.95381729 690.56137962 92 644 C90.51306641 642.83210937 90.51306641 642.83210937 88.99609375 641.640625 C82.0460262 636.06475288 75.48157656 630.1071251 69 624 C68.21753906 623.27167969 67.43507813 622.54335938 66.62890625 621.79296875 C60.01321936 615.43672056 54.45159477 608.35313 49 601 C48.59168945 600.45730469 48.18337891 599.91460938 47.76269531 599.35546875 C13.08645014 552.66607721 -1.56665846 490.62782632 -1.36285591 433.5276413 C-1.35178937 429.47945266 -1.3583994 425.43128343 -1.36264038 421.38308716 C-1.3682425 413.45632877 -1.358001 405.52966824 -1.34235242 397.60292646 C-1.32456347 388.24987308 -1.32338732 378.89683715 -1.32273683 369.54376951 C-1.32105046 352.7179613 -1.30529598 335.89219614 -1.28125 319.06640625 C-1.25833674 303.02017863 -1.2439172 286.97397821 -1.24023438 270.92773438 C-1.24000155 269.9515725 -1.23976872 268.97541063 -1.23952883 267.96966809 C-1.23859637 264.03684441 -1.23767592 260.10402072 -1.2367762 256.17119703 C-1.2160902 170.77640689 -0.99565587 85.38971314 0 0 Z " fill="#44B4FB" transform="translate(43,320)"/>
<path d="M0 0 C3.29534913 0.46233033 6.59021286 0.92803891 9.88500977 1.39428711 C11.26374142 1.58765781 11.26374142 1.58765781 12.67032623 1.784935 C20.41008898 2.8828333 28.11006623 4.16240029 35.79418945 5.59863281 C36.63003571 5.75481079 37.46588196 5.91098877 38.32705688 6.07189941 C39.18850311 6.23379761 40.04994934 6.3956958 40.9375 6.5625 C42.29770767 6.81719055 42.29770767 6.81719055 43.68539429 7.07702637 C113.82142386 20.25975624 184.47074109 37.16122254 250 66 C251.7953418 66.78769775 251.7953418 66.78769775 253.62695312 67.59130859 C284.48782226 81.17891208 314.91595221 95.91079676 344 113 C345.49804155 113.8657201 346.99671803 114.73034265 348.49609375 115.59375 C386.28913758 137.45724651 422.19257652 162.78490901 455.40625 191.10913086 C458.8521565 194.04603206 462.34899912 196.91001018 465.875 199.75 C469.58302605 202.76578964 473.01064002 205.88825217 476.328125 209.32421875 C478.12570925 211.12600297 480.00660302 212.77977256 481.9375 214.4375 C484.74576347 216.85617779 487.39970593 219.35899683 490 222 C492.49939764 224.53814799 495.03781792 226.94128303 497.75 229.25 C505.51469767 235.94264868 512.71810402 243.33874356 519.359375 251.140625 C521.16147789 253.18300828 523.05938947 255.08901711 525 257 C528.21434731 260.1711603 531.21750963 263.45582753 534.16015625 266.87890625 C536.19508819 269.22491058 538.28290967 271.5173645 540.375 273.8125 C544.37171746 278.23816669 548.16216504 282.80357752 551.9140625 287.4375 C554.55141268 290.67739086 557.26408759 293.84317799 560 297 C563.80395301 293.29322827 567.31136173 289.42091688 570.75 285.375 C571.27875732 284.7567334 571.80751465 284.1384668 572.35229492 283.50146484 C575.40170359 279.92343045 578.37886761 276.29899882 581.3125 272.625 C585.7815178 267.1102157 590.61882133 261.97177291 595.5090332 256.83251953 C598.60698438 253.57406763 601.64447691 250.28773208 604.5859375 246.88671875 C607.58339662 243.43202723 610.72634751 240.19122825 614 237 C617.94478121 233.10894743 621.69497268 229.14356351 625.296875 224.9296875 C630.39290725 219.1557427 635.99490998 213.94858309 641.8359375 208.9453125 C644.48977856 206.55972974 646.99454875 204.03881165 649.5 201.5 C653.8382046 197.1162538 658.30667374 192.99830789 663 189 C664.14816177 188.00117859 665.29518902 187.00105231 666.44140625 186 C673.85409801 179.53089739 681.31231897 173.14216798 689 167 C689.58958496 166.52046875 690.17916992 166.0409375 690.78662109 165.546875 C718.02708685 143.43153078 748.11002789 126.32832952 779.07226562 110.06591797 C782.60073268 108.21213216 786.12122853 106.34361213 789.640625 104.47265625 C803.69556481 97.03552815 817.97454509 90.18908689 832.45263672 83.61621094 C835.92546126 82.03396053 839.38705459 80.42908884 842.84765625 78.8203125 C923.69120018 41.52944245 1012.17063252 19.11614554 1099.5 3.22265625 C1100.17619385 3.09652451 1100.8523877 2.97039276 1101.54907227 2.84043884 C1105.42133195 2.15421834 1109.07550979 1.95585207 1113 2 C1113.22928264 40.02205817 1113.40529569 78.04401154 1113.51065329 116.0666221 C1113.52315918 120.56354021 1113.53610252 125.06045696 1113.54931641 129.55737305 C1113.55193951 130.4525642 1113.55456261 131.34775534 1113.55726521 132.2700735 C1113.60068534 146.73276981 1113.67947883 161.19506544 1113.77152796 175.65752468 C1113.86530412 190.51612447 1113.92064256 205.37451556 1113.94088495 220.23339909 C1113.95455279 229.38986496 1113.99759282 238.545198 1114.07916467 247.70131483 C1114.13234799 253.99452716 1114.14792907 260.28716067 1114.13501377 266.58058099 C1114.1286574 270.20286131 1114.13784369 273.82317389 1114.19205475 277.44509697 C1114.42487323 293.80424106 1113.51256236 306.37273402 1104.21180797 320.18365324 C1102.4444421 322.83271098 1100.92517582 325.59407562 1099.375 328.375 C1098.25737474 330.25440517 1097.13232163 332.12941246 1096 334 C1095.06631592 335.54796265 1095.06631592 335.54796265 1094.11376953 337.12719727 C1074.58116422 369.18965353 1052.41918416 399.56856547 1028.09423828 428.15185547 C1025.09249326 431.68462172 1022.15825274 435.26441412 1019.25 438.875 C1016.26545398 442.54461086 1013.18523735 445.9490691 1009.77552795 449.223526 C1008.03157371 450.96840947 1006.43335641 452.77673625 1004.83374023 454.65405273 C1000.84019161 459.24717567 996.59320421 463.55093391 992.28515625 467.84765625 C991.47058456 468.66318466 990.65601288 469.47871307 989.8167572 470.31895447 C988.10440807 472.03198008 986.39081158 473.74375965 984.67602539 475.4543457 C982.06997985 478.05503552 979.46931478 480.66101956 976.86914062 483.26757812 C975.19563301 484.94042486 973.52181518 486.61296134 971.84765625 488.28515625 C971.0797023 489.05513443 970.31174835 489.82511261 969.52052307 490.61842346 C965.39708024 494.72424438 961.19449792 498.67348998 956.77655029 502.46156311 C953.8318523 505.01157931 951.02047996 507.70240828 948.1875 510.375 C943.14434182 515.09873109 937.97309024 519.56834291 932.578125 523.890625 C929.9757371 526.01985146 927.48424498 528.23449357 925 530.5 C919.82453026 535.20423388 914.4485611 539.61715487 909 544 C907.89043217 544.90210662 906.78106559 545.80446083 905.671875 546.70703125 C895.32790481 555.08995115 884.70635788 563.08724965 874 571 C873.25379395 571.55300781 872.50758789 572.10601563 871.73876953 572.67578125 C845.31192642 592.20634096 817.5048801 609.68720722 789 626 C788.21302734 626.45084961 787.42605469 626.90169922 786.61523438 627.36621094 C759.10947202 643.05404779 730.65038623 657.16884986 701.625 669.8125 C700.47475342 670.31531494 699.32450684 670.81812988 698.1394043 671.33618164 C680.07139477 679.11297788 661.57496746 685.61612931 642.93389893 691.86865234 C636.80188478 693.92566236 630.67430733 695.99579473 624.546875 698.06640625 C623.3201004 698.48076935 622.09332581 698.89513245 620.82937622 699.322052 C607.2926809 703.90240536 593.80349289 708.61698899 580.32568359 713.36743164 C559.10355522 720.83913996 559.10355522 720.83913996 547.70556641 722.45458984 C543.50981106 723.0721493 539.34201208 723.80267999 535.16796875 724.55078125 C511.98577866 728.66836211 488.80381469 732.2345607 465.38934326 734.74285889 C463.09885695 734.98936102 460.8094669 735.2445468 458.52001953 735.50048828 C435.33591401 738.03640602 412.11069777 738.30962012 388.81243896 738.36791611 C386.48292161 738.37486452 384.1534677 738.38651672 381.82397461 738.39907837 C355.25946269 738.52258384 329.01889755 737.05127157 302.8125 732.375 C302.10695984 732.25094788 301.40141968 732.12689575 300.67449951 731.99908447 C227.12063696 718.9733104 150.95381729 690.56137962 92 644 C90.51306641 642.83210937 90.51306641 642.83210937 88.99609375 641.640625 C82.0460262 636.06475288 75.48157656 630.1071251 69 624 C68.21753906 623.27167969 67.43507813 622.54335938 66.62890625 621.79296875 C60.01321936 615.43672056 54.45159477 608.35313 49 601 C48.59168945 600.45730469 48.18337891 599.91460938 47.76269531 599.35546875 C13.08645014 552.66607721 -1.56665846 490.62782632 -1.36285591 433.5276413 C-1.35178937 429.47945266 -1.3583994 425.43128343 -1.36264038 421.38308716 C-1.3682425 413.45632877 -1.358001 405.52966824 -1.34235242 397.60292646 C-1.32456347 388.24987308 -1.32338732 378.89683715 -1.32273683 369.54376951 C-1.32105046 352.7179613 -1.30529598 335.89219614 -1.28125 319.06640625 C-1.25833674 303.02017863 -1.2439172 286.97397821 -1.24023438 270.92773438 C-1.24000155 269.9515725 -1.23976872 268.97541063 -1.23952883 267.96966809 C-1.23859637 264.03684441 -1.23767592 260.10402072 -1.2367762 256.17119703 C-1.2160902 170.77640689 -0.99565587 85.38971314 0 0 Z M4 6 C3.90833444 64.44752929 3.83789737 122.89505429 3.79573868 181.34264097 C3.7907498 188.25153942 3.78556352 195.16043771 3.78027344 202.06933594 C3.7797504 202.75681504 3.77922737 203.44429415 3.77868848 204.15260596 C3.76167577 226.39270909 3.7316551 248.63277128 3.69481112 270.87284967 C3.65590927 294.39811765 3.63199429 317.9233493 3.62364602 341.44865084 C3.61817265 355.52585133 3.60091999 369.60293421 3.56833413 383.68009847 C3.54710038 393.34888205 3.54081991 403.01760532 3.54599449 412.68641049 C3.54854253 418.25489696 3.54478968 423.82317871 3.5231781 429.39162827 C3.20279058 459.80251421 3.20279058 459.80251421 7.50538111 489.82576084 C8.00738135 492.03244686 8.45093988 494.2443735 8.87856674 496.46657562 C17.33625756 540.16179087 39.10181181 586.07928185 70 618 C70.90621094 618.94617188 71.81242187 619.89234375 72.74609375 620.8671875 C78.80896785 627.07625856 85.14406018 632.68511434 92 638 C92.58378418 638.45487793 93.16756836 638.90975586 93.76904297 639.37841797 C171.22778762 699.48576117 275.29574518 733.09830063 384.9375 734.25 C385.99536713 734.25100708 387.05323425 734.25201416 388.14315796 734.25305176 C410.19143223 734.23904147 432.0515879 733.03784068 454 731 C454.78532104 730.92738953 455.57064209 730.85477905 456.37976074 730.77996826 C474.57553707 729.07801642 492.67116876 726.72315167 510.75 724.0625 C511.54433441 723.94715912 512.33866882 723.83181824 513.15707397 723.71298218 C526.89078291 721.70238164 540.43604138 718.9333462 554 716 C555.44391468 627.0578184 556.03071332 538.10796369 556.52865601 449.15636063 C556.55653624 444.17821892 556.5847912 439.20007943 556.61317623 434.22194058 C556.63530258 430.33110232 556.65714537 426.44026248 556.67898774 422.54942262 C556.69523496 419.6794682 556.71191615 416.8095165 556.72862053 413.9395647 C556.78140027 404.7047268 556.823668 395.47003227 556.84353638 386.23506165 C556.8521028 382.72083295 556.86154767 379.20660761 556.87158203 375.69238281 C556.87385496 374.84328539 556.8761279 373.99418797 556.87846971 373.11936033 C556.91179106 362.3645908 557.08347133 351.62539006 557.42356169 340.87607312 C557.55716769 336.41604133 557.64672493 331.95482486 557.74302483 327.49386215 C557.83583592 324.13713976 557.99857099 320.78906094 558.16493225 317.43533325 C558.48084993 307.18378213 557.93311828 300.29887988 550.81860352 292.50048828 C549.14582307 290.81793571 547.43817583 289.19667513 545.68356514 287.59984207 C542.89207537 284.94717205 540.50409228 281.97071532 538.0625 279 C532.18274379 272.09629057 526.00698032 265.48742346 519.78222656 258.89550781 C518.00900329 257.00957555 516.2486173 255.11251058 514.4921875 253.2109375 C499.72392854 237.22714284 499.72392854 237.22714284 483.72265625 222.50390625 C481.89569493 220.90894002 480.19940713 219.22982158 478.5 217.5 C474.83717092 213.78800543 470.95893845 210.39153359 467 207 C466.00226563 206.13632812 465.00453125 205.27265625 463.9765625 204.3828125 C451.19996141 193.3435449 438.26359243 182.46218906 424.75683594 172.32226562 C423.54314981 171.40879646 422.3330782 170.49051206 421.12597656 169.56835938 C390.87521246 146.47639932 358.35542778 126.24867856 325 108 C323.8764209 107.38334473 322.7528418 106.76668945 321.59521484 106.13134766 C294.40217789 91.24677837 266.50175506 78.15814702 238 66 C237.0826709 65.60474121 236.1653418 65.20948242 235.22021484 64.80224609 C219.97778662 58.2680247 204.1714902 53.25345763 188.42024231 48.10797119 C184.96615452 46.97916764 181.51647985 45.84075916 178.07788086 44.66552734 C169.5257146 41.75497917 160.9314697 39.26542027 152.1875 37 C149.72238149 36.35521621 147.25754082 35.70936931 144.79296875 35.0625 C143.53645508 34.73338623 142.27994141 34.40427246 140.98535156 34.06518555 C137.4623868 33.13223929 133.9548908 32.1488342 130.44779968 31.15812683 C120.64857127 28.39435704 110.79941765 25.9575188 100.875 23.6875 C100.05105743 23.49812866 99.22711487 23.30875732 98.37820435 23.11364746 C73.35586902 17.37684699 48.19100572 12.26573251 22.875 8 C21.64837646 7.79213867 20.42175293 7.58427734 19.15795898 7.37011719 C18.03075439 7.18610352 16.9035498 7.00208984 15.7421875 6.8125 C14.7713623 6.65394531 13.80053711 6.49539063 12.80029297 6.33203125 C9.84140504 5.98119537 6.97695118 5.9781317 4 6 Z " fill="#2B96F2" transform="translate(43,320)"/>
<path d="M0 0 C0.33 0 0.66 0 1 0 C1 144.21 1 288.42 1 437 C-11.87 437.66 -24.74 438.32 -38 439 C-51.80181415 440.21106189 -51.80181415 440.21106189 -65.5625 441.75 C-66.31684326 441.84555176 -67.07118652 441.94110352 -67.84838867 442.03955078 C-149.37097941 452.60124974 -227.68643284 477.93989069 -337.17675781 533.36181641 C-340.06664807 535.03867248 -342.96658492 536.69722516 -345.8671875 538.35546875 C-356.20178515 544.30850991 -365.72563603 550.51276158 -375 558 C-377.48430583 559.89613638 -379.99227974 561.75999136 -382.5 563.625 C-397.78794409 575.05553478 -412.94153468 586.66202994 -427.97900391 598.41992188 C-429.87398005 599.90147365 -431.77085252 601.3805654 -433.66796875 602.859375 C-440.52405889 608.21446735 -447.30001092 613.6605961 -454.03735352 619.16430664 C-458.33501285 622.66877556 -462.68070271 626.10166863 -467.0625 629.5 C-472.73996758 633.91535836 -478.1881847 638.55879264 -483.59692383 643.2980957 C-487.25786322 646.50351107 -490.96162748 649.6320132 -494.75 652.6875 C-499.47441128 656.51336054 -503.9705208 660.54664377 -508.4453125 664.66015625 C-510.62697815 666.65834848 -512.83011309 668.62148889 -515.0625 670.5625 C-533.62913094 686.74305789 -552.01774909 703.35559851 -567 723 C-570.55480003 721.49158187 -572.79559622 719.42366339 -575.484375 716.67578125 C-576.33773437 715.81146484 -577.19109375 714.94714844 -578.0703125 714.05664062 C-578.95460938 713.15107422 -579.83890625 712.24550781 -580.75 711.3125 C-586.10637119 705.84884244 -591.45216657 700.4859649 -597.26660156 695.50854492 C-599.63003627 693.45169097 -601.81503004 691.2440232 -604 689 C-607.44436943 685.51909938 -610.95324895 682.22496381 -614.671875 679.04296875 C-617.8426753 676.26053828 -620.91693136 673.37893483 -624 670.5 C-628.92609605 665.90901253 -633.88277023 661.37827963 -639 657 C-640.03394678 656.11208701 -641.06779133 655.22405495 -642.1015625 654.3359375 C-644.49495036 652.28098118 -646.89126678 650.22949804 -649.2890625 648.1796875 C-651.7082138 646.11029302 -654.11938733 644.03222693 -656.5234375 641.9453125 C-662.7665442 636.53648957 -669.08904316 631.27863891 -675.61376953 626.21240234 C-679.40772174 623.26412177 -683.14851711 620.26008499 -686.86328125 617.21264648 C-695.3917814 610.21699934 -704.10868207 603.52695998 -713 597 C-713.71414063 596.4740625 -714.42828125 595.948125 -715.1640625 595.40625 C-738.34510283 578.36859491 -762.46708068 562.31547456 -788 549 C-788.88606934 548.53722656 -789.77213867 548.07445312 -790.68505859 547.59765625 C-828.45298936 528.13616997 -869.24391546 514.36774346 -908.85461426 499.20428467 C-1024.474895 454.93634972 -1024.474895 454.93634972 -1061.24121094 423.5 C-1063.04376397 421.96267548 -1064.85331892 420.43391496 -1066.6640625 418.90625 C-1072.39986448 414.05140975 -1077.99283989 409.18406721 -1083.22265625 403.77734375 C-1085.01048049 401.98951951 -1086.8761614 400.37465432 -1088.8125 398.75 C-1094.3590802 393.9602631 -1099.14805907 388.4726134 -1104 383 C-1104.47985352 382.46487793 -1104.95970703 381.92975586 -1105.45410156 381.37841797 C-1124.61735877 359.95274277 -1139.39180986 335.75507767 -1152 310 C-1152.40992188 309.17741699 -1152.81984375 308.35483398 -1153.2421875 307.50732422 C-1159.59854626 294.47732202 -1163.0428545 280.7886686 -1166.375 266.75 C-1166.69226044 265.41381119 -1166.69226044 265.41381119 -1167.01593018 264.05062866 C-1167.63271456 261.42659195 -1168.23734006 258.80011628 -1168.8359375 256.171875 C-1169.01058533 255.41588516 -1169.18523315 254.65989532 -1169.36517334 253.8809967 C-1169.94865665 251.26069015 -1170.47852658 248.63338711 -1171 246 C-1171.26087402 244.74241882 -1171.52174805 243.48483765 -1171.79052734 242.18914795 C-1174.25668251 229.56186901 -1174.40644249 217.19026412 -1174.328125 204.359375 C-1174.32505854 202.13503142 -1174.32318918 199.9106859 -1174.32244873 197.68634033 C-1174.31788479 193.06409151 -1174.30360219 188.44202072 -1174.28125 183.81982422 C-1174.25277091 177.90201194 -1174.24201386 171.98433781 -1174.2375679 166.06646347 C-1174.23241555 160.3932497 -1174.21789069 154.72007035 -1174.203125 149.046875 C-1174.20124428 147.97177422 -1174.19936356 146.89667343 -1174.19742584 145.78899384 C-1174.19054344 142.74827905 -1174.17690661 139.70767226 -1174.16113281 136.66699219 C-1174.16001495 135.77241806 -1174.15889709 134.87784393 -1174.15774536 133.9561615 C-1174.12734353 129.52609993 -1173.89181399 125.3610782 -1173 121 C-1171.35 121 -1169.7 121 -1168 121 C-1167.92523437 122.25167969 -1167.85046875 123.50335937 -1167.7734375 124.79296875 C-1163.92492665 179.87247696 -1142.52303767 235.51211706 -1110 280 C-1109.50612793 280.68175293 -1109.01225586 281.36350586 -1108.50341797 282.06591797 C-1103.06963371 289.54491585 -1097.55155872 296.83106692 -1091.23046875 303.59375 C-1089.37703763 305.59324837 -1087.59435537 307.62568915 -1085.81640625 309.69140625 C-1075.57828497 321.42608911 -1064.33098562 332.48701255 -1052 342 C-1050.94607277 342.87382361 -1049.89550185 343.75170529 -1048.84765625 344.6328125 C-1027.42280763 362.4989883 -1003.04099273 377.02925247 -977.92285156 389.07324219 C-975.99008443 390.00477901 -974.06919384 390.95804308 -972.1484375 391.9140625 C-912.60235569 421.18148199 -843.78459952 434.58202481 -778 439 C-776.7433252 439.08685059 -775.48665039 439.17370117 -774.19189453 439.26318359 C-761.29957837 440.09875433 -748.41648916 440.24299623 -735.5 440.25 C-733.80373978 440.25101212 -733.80373978 440.25101212 -732.07321167 440.25204468 C-697.42416309 440.219548 -663.21042991 437.46437551 -629 432 C-627.86615875 431.81951111 -627.86615875 431.81951111 -626.70941162 431.63537598 C-588.34290684 425.47790202 -550.72841626 415.92619606 -513.8817749 403.62701416 C-512.07839084 403.02612011 -510.27288188 402.43161462 -508.46728516 401.83740234 C-454.05367343 383.8790885 -401.07618861 359.03686428 -351.88769531 329.71582031 C-349.00352436 328.00209412 -346.10913521 326.30706725 -343.2109375 324.6171875 C-331.93965699 318.03332841 -320.88158582 311.20837961 -310 304 C-308.55082355 303.04681068 -307.10160399 302.09368691 -305.65234375 301.140625 C-283.15367395 286.29234364 -261.25654973 270.57743501 -240 254 C-238.85028509 253.10934315 -237.70054472 252.21871916 -236.55078125 251.328125 C-229.5859724 245.91393185 -222.78620017 240.34175477 -216.078125 234.61328125 C-213.2729268 232.22117731 -210.42536843 229.88544149 -207.5625 227.5625 C-197.98833627 219.75309504 -188.63256557 211.71841399 -179.61376953 203.2722168 C-176.87056016 200.70582821 -174.09089745 198.1957203 -171.25317383 195.73388672 C-157.83449942 184.00982096 -145.23973883 171.39967359 -132.66040039 158.79077148 C-129.91342155 156.03837405 -127.16105797 153.29144104 -124.40820312 150.54492188 C-122.63509552 148.7711543 -120.86229769 146.997077 -119.08984375 145.22265625 C-118.27934067 144.4141774 -117.46883759 143.60569855 -116.6337738 142.77272034 C-112.44911133 138.57089761 -108.41142277 134.29967601 -104.55348206 129.79502869 C-101.79683913 126.60976297 -98.88869085 123.56508418 -96 120.5 C-91.23343463 115.4139614 -86.52577439 110.30273137 -82 105 C-81.1018435 103.95548748 -80.20337566 102.91124263 -79.3046875 101.8671875 C-76.1953433 98.25142391 -73.09596064 94.62722593 -70 91 C-69.50886719 90.42491699 -69.01773437 89.84983398 -68.51171875 89.25732422 C-62.54964612 82.26876267 -56.68453963 75.21744919 -51 68 C-50.58782227 67.47825195 -50.17564453 66.95650391 -49.75097656 66.41894531 C-35.31338063 48.14257296 -21.22772812 29.62954576 -7.90673828 10.51855469 C-5.38672026 6.91242935 -2.85888021 3.35045237 0 0 Z " fill="#1E3E74" transform="translate(1174,658)"/>
<path d="M0 0 C26.41850719 23.54863959 43.63311781 54.14789871 45.78466797 90.00048828 C47.35133782 126.60595691 35.94033295 159.56669671 11.28173828 186.82470703 C-11.53778022 211.53459985 -43.38650612 225.48659155 -76.84130859 227.25830078 C-112.73883598 228.4136076 -146.5052745 215.43748836 -172.70654297 190.95654297 C-195.19129616 169.16929749 -209.72571285 138.11000353 -210.61328125 106.69921875 C-211.17645464 68.28473225 -200.41408553 35.51157351 -173.44140625 7.3515625 C-127.0665175 -39.2358462 -50.15044025 -41.65455975 0 0 Z " fill="#43B3FA" transform="translate(1127.375,29.66015625)"/>
<path d="M0 0 C2.07447648 -0.00237469 4.1489302 -0.00768076 6.22340012 -0.01329041 C31.66469086 -0.06367886 57.01984282 1.11456841 82.30692673 3.99757385 C83.37934616 4.11821198 83.37934616 4.11821198 84.47343063 4.24128723 C166.28648455 13.53963167 166.28648455 13.53963167 173.05692673 20.31007385 C173.15063297 22.08999309 173.17436944 23.87364125 173.17045212 25.65602112 C173.17037659 26.79712845 173.17030106 27.93823578 173.17022324 29.11392212 C173.16506195 30.35556625 173.15990067 31.59721039 173.15458298 32.8764801 C173.15316803 34.14023972 173.15175308 35.40399933 173.15029526 36.70605469 C173.14563255 40.07132274 173.13664153 43.43652375 173.12559128 46.80177307 C173.11537519 50.23357055 173.11079721 53.66537494 173.10575485 57.09718323 C173.09470053 63.8348321 173.07794383 70.5724491 173.05692673 77.31007385 C168.7332115 76.61884557 164.6231451 75.68620949 160.40848923 74.4936676 C151.17925707 71.96556125 141.83080674 70.1457095 132.43192673 68.37257385 C131.52263412 68.2002121 130.61334152 68.02785034 129.6764946 67.8502655 C83.3600445 59.11992831 36.22029622 54.4492149 -10.94307327 55.31007385 C-11.9258223 55.32795959 -12.90857132 55.34584534 -13.92110062 55.36427307 C-96.97268975 57.14070831 -179.53360801 75.38564837 -311.94307327 137.31007385 C-312.81673538 137.79588928 -313.69039749 138.28170471 -314.59053421 138.78224182 C-334.02432757 149.59766457 -352.79372928 161.4553925 -370.94307327 174.31007385 C-371.66978226 174.82424866 -372.39649124 175.33842346 -373.14522171 175.86817932 C-383.30013984 183.07622249 -393.24617716 190.49672542 -402.94307327 198.31007385 C-404.33719437 199.42962463 -404.33719437 199.42962463 -405.75947952 200.5717926 C-416.52224502 209.29793581 -427.00448257 218.33291565 -437.16572952 227.7514801 C-439.62438737 230.01648839 -442.11942256 232.22881833 -444.63057327 234.43507385 C-449.58328238 238.87627365 -454.29423154 243.55235514 -459.00557327 248.24757385 C-459.76893997 249.00634827 -460.53230667 249.76512268 -461.31880569 250.54689026 C-462.38772049 251.61882629 -462.38772049 251.61882629 -463.47822952 252.7124176 C-464.12155228 253.35686829 -464.76487503 254.00131897 -465.42769241 254.66529846 C-467.02890028 256.25076861 -467.02890028 256.25076861 -467.94307327 258.31007385 C-475.19813237 257.02521069 -482.11984027 255.15486182 -489.13057327 252.90382385 C-490.15489456 252.57845642 -491.17921585 252.25308899 -492.23457718 251.91786194 C-494.37996365 251.2347102 -496.52448693 250.54884219 -498.66817093 249.86036682 C-501.95893309 248.80498746 -505.25349282 247.76213709 -508.54854202 246.7202301 C-510.63862405 246.0530073 -512.72847637 245.38506441 -514.81807327 244.71632385 C-515.80444778 244.40481384 -516.7908223 244.09330383 -517.80708694 243.77235413 C-519.16990799 243.33179688 -519.16990799 243.33179688 -520.56026077 242.88233948 C-521.36060745 242.62633972 -522.16095413 242.37033997 -522.98555374 242.10658264 C-524.94307327 241.31007385 -524.94307327 241.31007385 -526.94307327 239.31007385 C-525.3600663 237.58060757 -523.77666285 235.85150658 -522.19307327 234.12257385 C-521.31135452 233.15964417 -520.42963577 232.19671448 -519.52119827 231.2046051 C-518.98784866 230.62484924 -518.45449905 230.04509338 -517.90498734 229.44776917 C-516.40244688 227.81060587 -514.90542283 226.16837824 -513.41084671 224.52394104 C-506.03471002 216.43676605 -498.41175921 208.62322023 -490.65987015 200.89649963 C-488.67757083 198.91961375 -486.70074694 196.93736347 -484.72432327 194.9546051 C-478.63522298 188.86197617 -472.5545616 182.84162113 -465.94307327 177.31007385 C-464.84795888 176.36112529 -463.75418217 175.41063055 -462.66182327 174.45851135 C-447.56776845 161.42273673 -431.99416654 149.14688245 -415.94307327 137.31007385 C-415.17704788 136.74256409 -414.41102249 136.17505432 -413.62178421 135.59034729 C-402.02847735 127.0174417 -390.12387533 119.02272782 -377.94307327 111.31007385 C-377.09873734 110.77382385 -376.2544014 110.23757385 -375.38447952 109.68507385 C-354.50992706 96.46770121 -332.99163619 84.45252226 -310.94307327 73.31007385 C-309.87444046 72.76770081 -308.80580765 72.22532776 -307.70479202 71.66651917 C-237.27642099 36.14487568 -159.46911899 13.2019094 -73.0153389 3.52296448 C-70.91631264 3.30732464 -68.81841485 3.08235358 -66.72041702 2.85694885 C-44.5109843 0.51857791 -22.31476029 0.02173301 0 0 Z " fill="#22386F" transform="translate(704.9430732727051,57.68992614746094)"/>
<path d="M0 0 C3.29534913 0.46233033 6.59021286 0.92803891 9.88500977 1.39428711 C11.26374142 1.58765781 11.26374142 1.58765781 12.67032623 1.784935 C20.41008898 2.8828333 28.11006623 4.16240029 35.79418945 5.59863281 C36.63003571 5.75481079 37.46588196 5.91098877 38.32705688 6.07189941 C39.18850311 6.23379761 40.04994934 6.3956958 40.9375 6.5625 C42.29770767 6.81719055 42.29770767 6.81719055 43.68539429 7.07702637 C113.82142386 20.25975624 184.47074109 37.16122254 250 66 C251.7953418 66.78769775 251.7953418 66.78769775 253.62695312 67.59130859 C284.48782226 81.17891208 314.91595221 95.91079676 344 113 C345.49804155 113.8657201 346.99671803 114.73034265 348.49609375 115.59375 C386.28913758 137.45724651 422.19257652 162.78490901 455.40625 191.10913086 C458.8521565 194.04603206 462.34899912 196.91001018 465.875 199.75 C469.58302605 202.76578964 473.01064002 205.88825217 476.328125 209.32421875 C478.12570925 211.12600297 480.00660302 212.77977256 481.9375 214.4375 C484.74576347 216.85617779 487.39970593 219.35899683 490 222 C492.49939764 224.53814799 495.03781792 226.94128303 497.75 229.25 C505.51469767 235.94264868 512.71810402 243.33874356 519.359375 251.140625 C521.16147789 253.18300828 523.05938947 255.08901711 525 257 C528.21434731 260.1711603 531.21750963 263.45582753 534.16015625 266.87890625 C536.19508819 269.22491058 538.28290967 271.5173645 540.375 273.8125 C544.37171746 278.23816669 548.16216504 282.80357752 551.9140625 287.4375 C554.55141268 290.67739086 557.26408759 293.84317799 560 297 C563.80395301 293.29322827 567.31136173 289.42091688 570.75 285.375 C571.27875732 284.7567334 571.80751465 284.1384668 572.35229492 283.50146484 C575.40170359 279.92343045 578.37886761 276.29899882 581.3125 272.625 C585.7815178 267.1102157 590.61882133 261.97177291 595.5090332 256.83251953 C598.60698438 253.57406763 601.64447691 250.28773208 604.5859375 246.88671875 C607.58339662 243.43202723 610.72634751 240.19122825 614 237 C617.94478121 233.10894743 621.69497268 229.14356351 625.296875 224.9296875 C630.39290725 219.1557427 635.99490998 213.94858309 641.8359375 208.9453125 C644.48977856 206.55972974 646.99454875 204.03881165 649.5 201.5 C653.8382046 197.1162538 658.30667374 192.99830789 663 189 C664.14816177 188.00117859 665.29518902 187.00105231 666.44140625 186 C673.85409801 179.53089739 681.31231897 173.14216798 689 167 C689.58958496 166.52046875 690.17916992 166.0409375 690.78662109 165.546875 C718.02708685 143.43153078 748.11002789 126.32832952 779.07226562 110.06591797 C782.60073268 108.21213216 786.12122853 106.34361213 789.640625 104.47265625 C803.69556481 97.03552815 817.97454509 90.18908689 832.45263672 83.61621094 C835.92546126 82.03396053 839.38705459 80.42908884 842.84765625 78.8203125 C923.69120018 41.52944245 1012.17063252 19.11614554 1099.5 3.22265625 C1100.17619385 3.09652451 1100.8523877 2.97039276 1101.54907227 2.84043884 C1105.42133195 2.15421834 1109.07550979 1.95585207 1113 2 C1113.22928264 40.02205817 1113.40529569 78.04401154 1113.51065329 116.0666221 C1113.52315918 120.56354021 1113.53610252 125.06045696 1113.54931641 129.55737305 C1113.55193951 130.4525642 1113.55456261 131.34775534 1113.55726521 132.2700735 C1113.60068534 146.73276981 1113.67947883 161.19506544 1113.77152796 175.65752468 C1113.86530412 190.51612447 1113.92064256 205.37451556 1113.94088495 220.23339909 C1113.95455279 229.38986496 1113.99759282 238.545198 1114.07916467 247.70131483 C1114.13234799 253.99452716 1114.14792907 260.28716067 1114.13501377 266.58058099 C1114.1286574 270.20286131 1114.13784369 273.82317389 1114.19205475 277.44509697 C1114.42487323 293.80424106 1113.51256236 306.37273402 1104.21180797 320.18365324 C1102.4444421 322.83271098 1100.92517582 325.59407562 1099.375 328.375 C1098.25737474 330.25440517 1097.13232163 332.12941246 1096 334 C1095.06631592 335.54796265 1095.06631592 335.54796265 1094.11376953 337.12719727 C1074.58116422 369.18965353 1052.41918416 399.56856547 1028.09423828 428.15185547 C1025.09249326 431.68462172 1022.15825274 435.26441412 1019.25 438.875 C1016.26545398 442.54461086 1013.18523735 445.9490691 1009.77552795 449.223526 C1008.03157371 450.96840947 1006.43335641 452.77673625 1004.83374023 454.65405273 C1000.84019161 459.24717567 996.59320421 463.55093391 992.28515625 467.84765625 C991.47058456 468.66318466 990.65601288 469.47871307 989.8167572 470.31895447 C988.10440807 472.03198008 986.39081158 473.74375965 984.67602539 475.4543457 C982.06997985 478.05503552 979.46931478 480.66101956 976.86914062 483.26757812 C975.19563301 484.94042486 973.52181518 486.61296134 971.84765625 488.28515625 C971.0797023 489.05513443 970.31174835 489.82511261 969.52052307 490.61842346 C965.39708024 494.72424438 961.19449792 498.67348998 956.77655029 502.46156311 C953.8318523 505.01157931 951.02047996 507.70240828 948.1875 510.375 C943.14434182 515.09873109 937.97309024 519.56834291 932.578125 523.890625 C929.9757371 526.01985146 927.48424498 528.23449357 925 530.5 C919.82453026 535.20423388 914.4485611 539.61715487 909 544 C907.89043217 544.90210662 906.78106559 545.80446083 905.671875 546.70703125 C895.32790481 555.08995115 884.70635788 563.08724965 874 571 C873.25379395 571.55300781 872.50758789 572.10601563 871.73876953 572.67578125 C845.31192642 592.20634096 817.5048801 609.68720722 789 626 C788.21302734 626.45084961 787.42605469 626.90169922 786.61523438 627.36621094 C759.10947202 643.05404779 730.65038623 657.16884986 701.625 669.8125 C700.47475342 670.31531494 699.32450684 670.81812988 698.1394043 671.33618164 C680.07139477 679.11297788 661.57496746 685.61612931 642.93389893 691.86865234 C636.80188478 693.92566236 630.67430733 695.99579473 624.546875 698.06640625 C623.3201004 698.48076935 622.09332581 698.89513245 620.82937622 699.322052 C607.2926809 703.90240536 593.80349289 708.61698899 580.32568359 713.36743164 C559.10355522 720.83913996 559.10355522 720.83913996 547.70556641 722.45458984 C543.50981106 723.0721493 539.34201208 723.80267999 535.16796875 724.55078125 C511.98577866 728.66836211 488.80381469 732.2345607 465.38934326 734.74285889 C463.09885695 734.98936102 460.8094669 735.2445468 458.52001953 735.50048828 C435.33591401 738.03640602 412.11069777 738.30962012 388.81243896 738.36791611 C386.48292161 738.37486452 384.1534677 738.38651672 381.82397461 738.39907837 C355.25946269 738.52258384 329.01889755 737.05127157 302.8125 732.375 C302.10695984 732.25094788 301.40141968 732.12689575 300.67449951 731.99908447 C227.12063696 718.9733104 150.95381729 690.56137962 92 644 C90.51306641 642.83210937 90.51306641 642.83210937 88.99609375 641.640625 C82.0460262 636.06475288 75.48157656 630.1071251 69 624 C68.21753906 623.27167969 67.43507813 622.54335938 66.62890625 621.79296875 C60.01321936 615.43672056 54.45159477 608.35313 49 601 C48.59168945 600.45730469 48.18337891 599.91460938 47.76269531 599.35546875 C13.08645014 552.66607721 -1.56665846 490.62782632 -1.36285591 433.5276413 C-1.35178937 429.47945266 -1.3583994 425.43128343 -1.36264038 421.38308716 C-1.3682425 413.45632877 -1.358001 405.52966824 -1.34235242 397.60292646 C-1.32456347 388.24987308 -1.32338732 378.89683715 -1.32273683 369.54376951 C-1.32105046 352.7179613 -1.30529598 335.89219614 -1.28125 319.06640625 C-1.25833674 303.02017863 -1.2439172 286.97397821 -1.24023438 270.92773438 C-1.24000155 269.9515725 -1.23976872 268.97541063 -1.23952883 267.96966809 C-1.23859637 264.03684441 -1.23767592 260.10402072 -1.2367762 256.17119703 C-1.2160902 170.77640689 -0.99565587 85.38971314 0 0 Z M4 6 C3.90833444 64.44752929 3.83789737 122.89505429 3.79573868 181.34264097 C3.7907498 188.25153942 3.78556352 195.16043771 3.78027344 202.06933594 C3.7797504 202.75681504 3.77922737 203.44429415 3.77868848 204.15260596 C3.76167577 226.39270909 3.7316551 248.63277128 3.69481112 270.87284967 C3.65590927 294.39811765 3.63199429 317.9233493 3.62364602 341.44865084 C3.61817265 355.52585133 3.60091999 369.60293421 3.56833413 383.68009847 C3.54710038 393.34888205 3.54081991 403.01760532 3.54599449 412.68641049 C3.54854253 418.25489696 3.54478968 423.82317871 3.5231781 429.39162827 C3.20279058 459.80251421 3.20279058 459.80251421 7.50538111 489.82576084 C8.00738135 492.03244686 8.45093988 494.2443735 8.87856674 496.46657562 C17.33625756 540.16179087 39.10181181 586.07928185 70 618 C70.90621094 618.94617188 71.81242187 619.89234375 72.74609375 620.8671875 C78.80896785 627.07625856 85.14406018 632.68511434 92 638 C92.58378418 638.45487793 93.16756836 638.90975586 93.76904297 639.37841797 C171.22778762 699.48576117 275.29574518 733.09830063 384.9375 734.25 C385.99536713 734.25100708 387.05323425 734.25201416 388.14315796 734.25305176 C410.19143223 734.23904147 432.0515879 733.03784068 454 731 C454.78532104 730.92738953 455.57064209 730.85477905 456.37976074 730.77996826 C474.57553707 729.07801642 492.67116876 726.72315167 510.75 724.0625 C511.54433441 723.94715912 512.33866882 723.83181824 513.15707397 723.71298218 C526.89078291 721.70238164 540.43604138 718.9333462 554 716 C555.44391468 627.0578184 556.03071332 538.10796369 556.52865601 449.15636063 C556.55653624 444.17821892 556.5847912 439.20007943 556.61317623 434.22194058 C556.63530258 430.33110232 556.65714537 426.44026248 556.67898774 422.54942262 C556.69523496 419.6794682 556.71191615 416.8095165 556.72862053 413.9395647 C556.78140027 404.7047268 556.823668 395.47003227 556.84353638 386.23506165 C556.8521028 382.72083295 556.86154767 379.20660761 556.87158203 375.69238281 C556.87385496 374.84328539 556.8761279 373.99418797 556.87846971 373.11936033 C556.91179106 362.3645908 557.08347133 351.62539006 557.42356169 340.87607312 C557.55716769 336.41604133 557.64672493 331.95482486 557.74302483 327.49386215 C557.83583592 324.13713976 557.99857099 320.78906094 558.16493225 317.43533325 C558.48084993 307.18378213 557.93311828 300.29887988 550.81860352 292.50048828 C549.14582307 290.81793571 547.43817583 289.19667513 545.68356514 287.59984207 C542.89207537 284.94717205 540.50409228 281.97071532 538.0625 279 C532.18274379 272.09629057 526.00698032 265.48742346 519.78222656 258.89550781 C518.00900329 257.00957555 516.2486173 255.11251058 514.4921875 253.2109375 C499.72392854 237.22714284 499.72392854 237.22714284 483.72265625 222.50390625 C481.89569493 220.90894002 480.19940713 219.22982158 478.5 217.5 C474.83717092 213.78800543 470.95893845 210.39153359 467 207 C466.00226563 206.13632812 465.00453125 205.27265625 463.9765625 204.3828125 C451.19996141 193.3435449 438.26359243 182.46218906 424.75683594 172.32226562 C423.54314981 171.40879646 422.3330782 170.49051206 421.12597656 169.56835938 C390.87521246 146.47639932 358.35542778 126.24867856 325 108 C323.8764209 107.38334473 322.7528418 106.76668945 321.59521484 106.13134766 C294.40217789 91.24677837 266.50175506 78.15814702 238 66 C237.0826709 65.60474121 236.1653418 65.20948242 235.22021484 64.80224609 C219.97778662 58.2680247 204.1714902 53.25345763 188.42024231 48.10797119 C184.96615452 46.97916764 181.51647985 45.84075916 178.07788086 44.66552734 C169.5257146 41.75497917 160.9314697 39.26542027 152.1875 37 C149.72238149 36.35521621 147.25754082 35.70936931 144.79296875 35.0625 C143.53645508 34.73338623 142.27994141 34.40427246 140.98535156 34.06518555 C137.4623868 33.13223929 133.9548908 32.1488342 130.44779968 31.15812683 C120.64857127 28.39435704 110.79941765 25.9575188 100.875 23.6875 C100.05105743 23.49812866 99.22711487 23.30875732 98.37820435 23.11364746 C73.35586902 17.37684699 48.19100572 12.26573251 22.875 8 C21.64837646 7.79213867 20.42175293 7.58427734 19.15795898 7.37011719 C18.03075439 7.18610352 16.9035498 7.00208984 15.7421875 6.8125 C14.7713623 6.65394531 13.80053711 6.49539063 12.80029297 6.33203125 C9.84140504 5.98119537 6.97695118 5.9781317 4 6 Z M1100.1953125 7.8828125 C1099.2352832 8.0772998 1098.27525391 8.27178711 1097.28613281 8.47216797 C1096.24295898 8.68760254 1095.19978516 8.90303711 1094.125 9.125 C1091.85164177 9.58893027 1089.5782007 10.05245478 1087.3046875 10.515625 C1086.1094043 10.75990234 1084.91412109 11.00417969 1083.68261719 11.25585938 C1080.02337115 11.99527743 1076.36041897 12.71212112 1072.6953125 13.421875 C1056.56383447 16.55923098 1040.59759641 20.14747472 1024.6484375 24.10449219 C1020.91621281 25.02056554 1017.17830082 25.90870428 1013.4375 26.7890625 C1001.10663401 29.6980542 988.91094404 32.77748726 976.8125 36.5390625 C971.60017413 38.14963679 966.33497213 39.53934925 961.0625 40.9375 C951.94381509 43.37307028 943.01458335 46.22399125 934.08984375 49.2890625 C930.36457813 50.56355377 926.61744198 51.73134095 922.84765625 52.8671875 C915.30937121 55.17047588 907.90263483 57.79993759 900.5 60.5 C899.78923309 60.7587793 899.07846619 61.01755859 898.34616089 61.28417969 C874.38797691 70.03123578 851.03894574 80.05979398 828 91 C826.27595947 91.81573486 826.27595947 91.81573486 824.51708984 92.64794922 C798.98438808 104.75562838 773.85294739 117.52872977 749.36523438 131.6484375 C747.31276393 132.82127775 745.24961596 133.96653639 743.171875 135.09375 C709.64333671 153.49545939 679.61650539 180.03921492 651.93115234 206.18212891 C649.94700619 208.0498852 647.95336004 209.90699392 645.95703125 211.76171875 C630.21231277 226.34740148 630.21231277 226.34740148 615.671875 242.109375 C613.70245971 244.33647079 611.61625658 246.41214954 609.5 248.5 C606.15066271 251.80986698 603.00074044 255.20746949 599.9375 258.78125 C598.0142366 260.9836968 596.03954256 263.13257855 594.05053711 265.27563477 C589.30702081 270.38959865 584.78418495 275.61301417 580.41015625 281.05078125 C576.98713692 285.23940295 573.44664635 289.32446437 569.89672852 293.40576172 C565.48653254 298.50439615 564.83158583 301.22424876 564.71009827 307.8230896 C564.69136984 308.65514868 564.67264142 309.48720776 564.65334547 310.34448075 C564.59142179 313.19880422 564.53762945 316.05321256 564.48461914 318.90771484 C564.46438631 319.9238551 564.44415348 320.93999536 564.42330754 321.98692775 C563.81196536 352.84110655 563.58627795 383.70178279 563.31583124 414.56039879 C563.23721297 423.52229722 563.15549464 432.48416675 563.07374836 441.4460371 C562.92773344 457.46546874 562.78448105 473.48492383 562.64282227 489.50439453 C562.50635975 504.93605565 562.36774107 520.36769547 562.22680664 535.79931641 C562.04717883 555.46816494 561.86950269 575.13703019 561.69337313 594.80591036 C561.63778631 601.00724533 561.58152782 607.208574 561.52502251 613.40990067 C561.45598147 620.99112215 561.38823561 628.57235408 561.32197743 636.15360041 C561.288351 639.9984246 561.25426676 643.84324283 561.21866798 647.68804932 C561.01454058 669.79244451 560.96817896 691.89470641 561 714 C564.35239312 713.35068661 567.51633351 712.57199454 570.75048828 711.47216797 C571.67398575 711.15973648 572.59748322 710.84730499 573.54896545 710.52540588 C575.04453224 710.01396278 575.04453224 710.01396278 576.5703125 709.4921875 C577.62355209 709.13458847 578.67679169 708.77698944 579.76194763 708.40855408 C583.21745206 707.23406219 586.67128136 706.0547319 590.125 704.875 C592.51942504 704.05941603 594.91387514 703.24390563 597.30834961 702.4284668 C616.52998521 695.87473983 635.72447207 689.2419921 654.87931824 682.49537659 C658.92240781 681.07206175 662.97038865 679.66672577 667.0300293 678.29125977 C678.1832873 674.49262716 688.95915565 670.17734372 699.6875 665.3125 C701.25671334 664.60747445 702.82605141 663.90272647 704.39550781 663.19824219 C717.3727003 657.35502179 730.22939558 651.28241718 743 645 C743.99354492 644.51611816 744.98708984 644.03223633 746.01074219 643.53369141 C759.95820162 636.73894737 773.59225008 629.52662196 787.00878906 621.73486328 C789.02022362 620.56825751 791.03527612 619.40786973 793.05371094 618.25341797 C807.66680086 609.89232013 821.81285068 600.97211068 835.8125 591.625 C836.5680014 591.12084564 837.32350281 590.61669128 838.10189819 590.09725952 C850.53414994 581.7842917 862.80715361 573.25599872 874.75 564.25 C875.72706909 563.51438843 875.72706909 563.51438843 876.72387695 562.76391602 C888.38986864 553.9525896 899.95364856 545.04592778 911.046875 535.51953125 C913.89235657 533.09183864 916.77919283 530.7268294 919.6875 528.375 C924.13903808 524.75165505 928.42382455 520.98036128 932.66796875 517.1171875 C934.75823889 515.21948831 936.86986115 513.35266585 939 511.5 C943.71553137 507.38685188 948.36400713 503.20243361 953 499 C953.88486084 498.20198975 954.76972168 497.40397949 955.68139648 496.58178711 C964.99956293 488.08856589 973.92856907 479.22420161 982.83154297 470.29882812 C985.3878593 467.73711354 987.94952929 465.18083894 990.51171875 462.625 C992.16177933 460.97427914 993.81152998 459.3232484 995.4609375 457.671875 C996.59237686 456.54347198 996.59237686 456.54347198 997.74667358 455.39227295 C1002.36519328 450.75348552 1006.73351521 445.96270865 1011 441 C1012.45445517 439.39231627 1013.91220895 437.78760285 1015.375 436.1875 C1019.22050182 431.92119411 1022.89731266 427.548307 1026.5078125 423.08203125 C1028.30393609 420.86080631 1030.11008536 418.65099623 1031.9296875 416.44921875 C1056.84519534 386.20766791 1079.01651813 353.79730266 1098.5 319.8125 C1098.98001465 318.97638184 1099.4600293 318.14026367 1099.95458984 317.27880859 C1100.84641777 315.70800024 1101.72736686 314.13093693 1102.59442025 312.54631889 C1103.48069772 310.94075715 1104.39033928 309.34766883 1105.33201092 307.77395642 C1109.15081725 300.98252212 1109.70222191 295.37419103 1109.60127258 287.67404175 C1109.60768077 285.86650411 1109.60768077 285.86650411 1109.61421841 284.02245057 C1109.62099388 280.7038231 1109.60551161 277.38669307 1109.58032811 274.0682478 C1109.55862634 270.48011643 1109.56605035 266.89202685 1109.56983948 263.30384827 C1109.57245437 257.09588678 1109.55683922 250.88818916 1109.52865028 244.68029404 C1109.48792126 235.70489585 1109.47498348 226.72962455 1109.46871033 217.75414397 C1109.45778185 203.19019042 1109.42454703 188.62637734 1109.37719727 174.0625 C1109.33126415 159.91960348 1109.29589063 145.77674517 1109.2746582 131.63378906 C1109.27334459 130.76122659 1109.27203097 129.88866412 1109.27067754 128.98966037 C1109.2641521 124.61203407 1109.25783362 120.23440751 1109.25161803 115.85678077 C1109.1998301 79.57108804 1109.11180435 43.28555498 1109 7 C1105.76326914 7 1103.31538097 7.24315333 1100.1953125 7.8828125 Z " fill="#019BF4" transform="translate(43,320)"/>
<path d="M0 0 C0.33 0 0.66 0 1 0 C1 144.21 1 288.42 1 437 C-11.87 437.66 -24.74 438.32 -38 439 C-51.80181415 440.21106189 -51.80181415 440.21106189 -65.5625 441.75 C-66.31684326 441.84555176 -67.07118652 441.94110352 -67.84838867 442.03955078 C-149.37097941 452.60124974 -227.68643284 477.93989069 -337.17675781 533.36181641 C-340.06664807 535.03867248 -342.96658492 536.69722516 -345.8671875 538.35546875 C-356.20178515 544.30850991 -365.72563603 550.51276158 -375 558 C-377.48430583 559.89613638 -379.99227974 561.75999136 -382.5 563.625 C-397.78794409 575.05553478 -412.94153468 586.66202994 -427.97900391 598.41992188 C-429.87398005 599.90147365 -431.77085252 601.3805654 -433.66796875 602.859375 C-440.52405889 608.21446735 -447.30001092 613.6605961 -454.03735352 619.16430664 C-458.33501285 622.66877556 -462.68070271 626.10166863 -467.0625 629.5 C-472.73996758 633.91535836 -478.1881847 638.55879264 -483.59692383 643.2980957 C-487.25786322 646.50351107 -490.96162748 649.6320132 -494.75 652.6875 C-499.47441128 656.51336054 -503.9705208 660.54664377 -508.4453125 664.66015625 C-510.62697815 666.65834848 -512.83011309 668.62148889 -515.0625 670.5625 C-533.62913094 686.74305789 -552.01774909 703.35559851 -567 723 C-570.55480003 721.49158187 -572.79559622 719.42366339 -575.484375 716.67578125 C-576.33773437 715.81146484 -577.19109375 714.94714844 -578.0703125 714.05664062 C-578.95460938 713.15107422 -579.83890625 712.24550781 -580.75 711.3125 C-586.10637119 705.84884244 -591.45216657 700.4859649 -597.26660156 695.50854492 C-599.63003627 693.45169097 -601.81503004 691.2440232 -604 689 C-607.44436943 685.51909938 -610.95324895 682.22496381 -614.671875 679.04296875 C-617.8426753 676.26053828 -620.91693136 673.37893483 -624 670.5 C-628.92609605 665.90901253 -633.88277023 661.37827963 -639 657 C-640.03394678 656.11208701 -641.06779133 655.22405495 -642.1015625 654.3359375 C-644.49495036 652.28098118 -646.89126678 650.22949804 -649.2890625 648.1796875 C-651.7082138 646.11029302 -654.11938733 644.03222693 -656.5234375 641.9453125 C-662.7665442 636.53648957 -669.08904316 631.27863891 -675.61376953 626.21240234 C-679.40772174 623.26412177 -683.14851711 620.26008499 -686.86328125 617.21264648 C-695.3917814 610.21699934 -704.10868207 603.52695998 -713 597 C-713.71414063 596.4740625 -714.42828125 595.948125 -715.1640625 595.40625 C-738.34510283 578.36859491 -762.46708068 562.31547456 -788 549 C-788.88606934 548.53722656 -789.77213867 548.07445312 -790.68505859 547.59765625 C-828.45298936 528.13616997 -869.24391546 514.36774346 -908.85461426 499.20428467 C-1024.474895 454.93634972 -1024.474895 454.93634972 -1061.24121094 423.5 C-1063.04376397 421.96267548 -1064.85331892 420.43391496 -1066.6640625 418.90625 C-1072.39986448 414.05140975 -1077.99283989 409.18406721 -1083.22265625 403.77734375 C-1085.01048049 401.98951951 -1086.8761614 400.37465432 -1088.8125 398.75 C-1094.3590802 393.9602631 -1099.14805907 388.4726134 -1104 383 C-1104.47985352 382.46487793 -1104.95970703 381.92975586 -1105.45410156 381.37841797 C-1124.61735877 359.95274277 -1139.39180986 335.75507767 -1152 310 C-1152.40992188 309.17741699 -1152.81984375 308.35483398 -1153.2421875 307.50732422 C-1159.59854626 294.47732202 -1163.0428545 280.7886686 -1166.375 266.75 C-1166.69226044 265.41381119 -1166.69226044 265.41381119 -1167.01593018 264.05062866 C-1167.63271456 261.42659195 -1168.23734006 258.80011628 -1168.8359375 256.171875 C-1169.01058533 255.41588516 -1169.18523315 254.65989532 -1169.36517334 253.8809967 C-1169.94865665 251.26069015 -1170.47852658 248.63338711 -1171 246 C-1171.26087402 244.74241882 -1171.52174805 243.48483765 -1171.79052734 242.18914795 C-1174.25668251 229.56186901 -1174.40644249 217.19026412 -1174.328125 204.359375 C-1174.32505854 202.13503142 -1174.32318918 199.9106859 -1174.32244873 197.68634033 C-1174.31788479 193.06409151 -1174.30360219 188.44202072 -1174.28125 183.81982422 C-1174.25277091 177.90201194 -1174.24201386 171.98433781 -1174.2375679 166.06646347 C-1174.23241555 160.3932497 -1174.21789069 154.72007035 -1174.203125 149.046875 C-1174.20124428 147.97177422 -1174.19936356 146.89667343 -1174.19742584 145.78899384 C-1174.19054344 142.74827905 -1174.17690661 139.70767226 -1174.16113281 136.66699219 C-1174.16001495 135.77241806 -1174.15889709 134.87784393 -1174.15774536 133.9561615 C-1174.12734353 129.52609993 -1173.89181399 125.3610782 -1173 121 C-1171.35 121 -1169.7 121 -1168 121 C-1167.92523437 122.25167969 -1167.85046875 123.50335937 -1167.7734375 124.79296875 C-1163.92492665 179.87247696 -1142.52303767 235.51211706 -1110 280 C-1109.50612793 280.68175293 -1109.01225586 281.36350586 -1108.50341797 282.06591797 C-1103.06963371 289.54491585 -1097.55155872 296.83106692 -1091.23046875 303.59375 C-1089.37703763 305.59324837 -1087.59435537 307.62568915 -1085.81640625 309.69140625 C-1075.57828497 321.42608911 -1064.33098562 332.48701255 -1052 342 C-1050.94607277 342.87382361 -1049.89550185 343.75170529 -1048.84765625 344.6328125 C-1027.42280763 362.4989883 -1003.04099273 377.02925247 -977.92285156 389.07324219 C-975.99008443 390.00477901 -974.06919384 390.95804308 -972.1484375 391.9140625 C-912.60235569 421.18148199 -843.78459952 434.58202481 -778 439 C-776.7433252 439.08685059 -775.48665039 439.17370117 -774.19189453 439.26318359 C-761.29957837 440.09875433 -748.41648916 440.24299623 -735.5 440.25 C-733.80373978 440.25101212 -733.80373978 440.25101212 -732.07321167 440.25204468 C-697.42416309 440.219548 -663.21042991 437.46437551 -629 432 C-627.86615875 431.81951111 -627.86615875 431.81951111 -626.70941162 431.63537598 C-588.34290684 425.47790202 -550.72841626 415.92619606 -513.8817749 403.62701416 C-512.07839084 403.02612011 -510.27288188 402.43161462 -508.46728516 401.83740234 C-454.05367343 383.8790885 -401.07618861 359.03686428 -351.88769531 329.71582031 C-349.00352436 328.00209412 -346.10913521 326.30706725 -343.2109375 324.6171875 C-331.93965699 318.03332841 -320.88158582 311.20837961 -310 304 C-308.55082355 303.04681068 -307.10160399 302.09368691 -305.65234375 301.140625 C-283.15367395 286.29234364 -261.25654973 270.57743501 -240 254 C-238.85028509 253.10934315 -237.70054472 252.21871916 -236.55078125 251.328125 C-229.5859724 245.91393185 -222.78620017 240.34175477 -216.078125 234.61328125 C-213.2729268 232.22117731 -210.42536843 229.88544149 -207.5625 227.5625 C-197.98833627 219.75309504 -188.63256557 211.71841399 -179.61376953 203.2722168 C-176.87056016 200.70582821 -174.09089745 198.1957203 -171.25317383 195.73388672 C-157.83449942 184.00982096 -145.23973883 171.39967359 -132.66040039 158.79077148 C-129.91342155 156.03837405 -127.16105797 153.29144104 -124.40820312 150.54492188 C-122.63509552 148.7711543 -120.86229769 146.997077 -119.08984375 145.22265625 C-118.27934067 144.4141774 -117.46883759 143.60569855 -116.6337738 142.77272034 C-112.44911133 138.57089761 -108.41142277 134.29967601 -104.55348206 129.79502869 C-101.79683913 126.60976297 -98.88869085 123.56508418 -96 120.5 C-91.23343463 115.4139614 -86.52577439 110.30273137 -82 105 C-81.1018435 103.95548748 -80.20337566 102.91124263 -79.3046875 101.8671875 C-76.1953433 98.25142391 -73.09596064 94.62722593 -70 91 C-69.50886719 90.42491699 -69.01773437 89.84983398 -68.51171875 89.25732422 C-62.54964612 82.26876267 -56.68453963 75.21744919 -51 68 C-50.58782227 67.47825195 -50.17564453 66.95650391 -49.75097656 66.41894531 C-35.31338063 48.14257296 -21.22772812 29.62954576 -7.90673828 10.51855469 C-5.38672026 6.91242935 -2.85888021 3.35045237 0 0 Z M-5 15 C-5.86415034 16.08555532 -6.68337772 17.20688765 -7.484375 18.33984375 C-8.00056396 19.06429687 -8.51675293 19.78875 -9.04858398 20.53515625 C-9.61005127 21.32792969 -10.17151855 22.12070312 -10.75 22.9375 C-16.78156485 31.36984947 -22.98723607 39.64524982 -29.33203125 47.84375 C-31.03789848 50.04899288 -32.73779766 52.25875328 -34.4375 54.46875 C-45.45657245 68.75747167 -56.92113958 82.66505721 -68.63037109 96.39208984 C-70.06585421 98.0773112 -71.4958849 99.76706809 -72.92578125 101.45703125 C-78.39151498 107.89729633 -83.95371431 114.22081807 -89.72827148 120.38671875 C-92.28273525 123.11724374 -94.78061133 125.88383809 -97.22924805 128.70996094 C-108.89590919 142.06356685 -121.4540888 154.61658572 -134.00292969 167.13330078 C-136.52918029 169.65411752 -139.04994144 172.18033738 -141.5703125 174.70703125 C-143.20280394 176.33886292 -144.83560501 177.97038491 -146.46875 179.6015625 C-147.20847046 180.34330719 -147.94819092 181.08505188 -148.71032715 181.84927368 C-152.77389741 185.89476592 -156.93274593 189.76449399 -161.27536011 193.50894165 C-163.19883119 195.17190192 -165.05776344 196.89037695 -166.89453125 198.6484375 C-167.53430908 199.2566333 -168.17408691 199.8648291 -168.83325195 200.49145508 C-169.48640381 201.1130249 -170.13955566 201.73459473 -170.8125 202.375 C-176.189015 207.45735538 -181.6387559 212.28394154 -187.42578125 216.89453125 C-190.21030348 219.17200846 -192.85413803 221.56312008 -195.5 224 C-200.31044272 228.41747698 -205.27970388 232.56939588 -210.36279297 236.66748047 C-212.22388068 238.18221604 -214.06757206 239.71671785 -215.91015625 241.25390625 C-224.69570982 248.57299441 -233.63243663 255.59922528 -242.83105469 262.39013672 C-245.1808787 264.13425418 -247.51721882 265.89537772 -249.8515625 267.66015625 C-277.49911075 288.55500353 -306.22432323 308.24889813 -336 326 C-337.41104004 326.84135498 -337.41104004 326.84135498 -338.85058594 327.69970703 C-353.05258683 336.13403239 -367.4159489 344.24538921 -382 352 C-383.07717285 352.57282715 -384.1543457 353.1456543 -385.26416016 353.73583984 C-398.94119968 360.98054047 -412.68210116 367.86394535 -426.8671875 374.0546875 C-430.02510553 375.4543508 -433.1333436 376.94812438 -436.25 378.4375 C-445.6901255 382.86128176 -455.32171408 386.82399036 -464.97265625 390.76220703 C-466.87858201 391.54148474 -468.78253266 392.32562813 -470.68359375 393.11669922 C-497.94208416 404.44847272 -526.55591143 413.1744981 -555 421 C-556.3617334 421.37946777 -556.3617334 421.37946777 -557.75097656 421.76660156 C-574.01162915 426.27174209 -590.4392843 429.78940737 -607 433 C-608.11455566 433.22042969 -609.22911133 433.44085937 -610.37744141 433.66796875 C-633.26365884 438.14018296 -656.38993592 440.4664851 -679.57611084 442.75720215 C-682.7567708 443.07580476 -685.93472941 443.41890699 -689.11328125 443.7578125 C-724.88631991 447.30732249 -761.28628491 445.1848738 -797 442 C-798.29373535 441.88785156 -799.5874707 441.77570313 -800.92041016 441.66015625 C-838.16906896 438.32767925 -876.32807409 431.29397893 -912 420 C-913.12583496 419.64566895 -914.25166992 419.29133789 -915.41162109 418.92626953 C-984.81876094 396.89764524 -1054.46243083 359.47897426 -1100 301 C-1100.94904991 299.83757423 -1101.90106959 298.67756909 -1102.85546875 297.51953125 C-1109.82248707 289.02879094 -1116.13712514 280.28596573 -1122 271 C-1122.36657715 270.42378906 -1122.7331543 269.84757813 -1123.11083984 269.25390625 C-1144.0536973 236.10612648 -1162.07589818 197.08685739 -1168 158 C-1168.33 158 -1168.66 158 -1169 158 C-1170.13734374 173.7603347 -1170.20354989 189.51526766 -1170.03710938 205.30712891 C-1170.01471259 207.53590354 -1169.99850314 209.76476945 -1169.99414062 211.99365234 C-1169.81570354 260.28764939 -1151.30700899 312.21961164 -1123 351 C-1122.53239258 351.64727051 -1122.06478516 352.29454102 -1121.58300781 352.96142578 C-1107.40795819 372.50467976 -1091.47956386 390.60132009 -1073.45947266 406.69335938 C-1072.08244448 407.92618888 -1070.71850815 409.17359667 -1069.35546875 410.421875 C-1064.29389886 415.0450412 -1059.09764929 419.45916951 -1053.7578125 423.7578125 C-1051.97941391 425.20370597 -1050.22209885 426.67611969 -1048.4921875 428.1796875 C-1009.40226079 461.77072543 -953.31992039 477.00221824 -906.10742188 495.109375 C-899.17114546 497.7701287 -892.23760625 500.43792547 -885.30603027 503.11090088 C-883.63984473 503.75330533 -881.97357429 504.39548961 -880.30725098 505.03753662 C-873.98127083 507.47510051 -867.65674205 509.91638754 -861.33352661 512.3611145 C-859.18586007 513.19094713 -857.03782065 514.01981548 -854.88937378 514.84762573 C-841.49411551 520.01008226 -828.18796604 525.3278251 -815 531 C-813.52575562 531.63059326 -813.52575562 531.63059326 -812.02172852 532.27392578 C-782.98684506 544.79991507 -755.73793043 560.6531029 -730 579 C-728.8635625 579.80118033 -727.72684585 580.60196487 -726.58984375 581.40234375 C-723.04138734 583.90950507 -719.51805057 586.45040651 -716 589 C-715.27409668 589.52464844 -714.54819336 590.04929687 -713.80029297 590.58984375 C-703.89231098 597.76551793 -694.21057707 605.13433696 -684.76953125 612.9140625 C-681.18787554 615.86279675 -677.53986538 618.71837171 -673.875 621.5625 C-667.3288614 626.66473266 -661.03385057 632.03059844 -654.76757812 637.47070312 C-652.97139653 639.02474753 -651.16694198 640.56859331 -649.359375 642.109375 C-643.23890124 647.3270171 -637.17529193 652.59072535 -631.21875 657.99609375 C-629.20691607 659.81311982 -627.17339566 661.59944392 -625.125 663.375 C-620.20883672 667.66063332 -615.41976419 672.0842213 -610.625 676.50439453 C-608.97186534 678.02589437 -607.3144384 679.54260464 -605.65625 681.05859375 C-599.98680755 686.25241737 -594.43799137 691.51472876 -589.0390625 696.9921875 C-586.5049756 699.48743782 -583.82867449 701.78122124 -581.12890625 704.09375 C-576.90629529 707.87473009 -572.96979013 711.95699653 -569 716 C-564.90851734 712.80664768 -561.54836064 709.44541711 -558.1796875 705.5078125 C-551.48597398 697.80644318 -544.67029417 690.11693308 -536.82421875 683.5703125 C-534.77534364 681.80661272 -532.89486462 679.92785066 -531 678 C-527.8288397 674.78565269 -524.54417247 671.78249037 -521.12109375 668.83984375 C-518.77508942 666.80491181 -516.4826355 664.71709033 -514.1875 662.625 C-509.91689849 658.76977614 -505.51226331 655.12417485 -501.0390625 651.5078125 C-497.52942849 648.61168778 -494.10964618 645.62337676 -490.6875 642.625 C-485.29684521 637.91219559 -479.79102297 633.40637098 -474.12963867 629.02392578 C-470.1654448 625.94581952 -466.31136362 622.76498538 -462.5 619.5 C-455.82373119 613.79346856 -448.93759894 608.38367467 -442 603 C-440.58184773 601.89606904 -439.1638865 600.79189265 -437.74609375 599.6875 C-434.71006005 597.32329076 -431.67207166 594.96162361 -428.6328125 592.6015625 C-425.60242275 590.24770122 -422.57651092 587.88828473 -419.5546875 585.5234375 C-410.14434133 578.16595554 -400.65015116 570.93233053 -391.0703125 563.796875 C-387.68733194 561.27428311 -384.33098828 558.7213784 -380.9921875 556.140625 C-370.58923853 548.1351472 -359.98338487 540.98826475 -348.58496094 534.47705078 C-345.97778047 532.98730372 -343.38325295 531.47707638 -340.7890625 529.96484375 C-314.98709586 515.04024538 -288.38479758 501.75387986 -261 490 C-259.90768066 489.52949219 -258.81536133 489.05898437 -257.68994141 488.57421875 C-254.54766394 487.22637582 -251.40064661 485.89065154 -248.25 484.5625 C-247.35917725 484.18552979 -246.46835449 483.80855957 -245.55053711 483.42016602 C-208.39827229 468.00342538 -169.11406867 457.01553476 -130 448 C-129.01837891 447.77070801 -128.03675781 447.54141602 -127.02539062 447.30517578 C-113.35084555 444.1449109 -99.55789283 441.90497259 -85.6875 439.8125 C-84.85181488 439.68575897 -84.01612976 439.55901794 -83.15512085 439.42843628 C-80.69145893 439.05728336 -78.22684842 438.69329703 -75.76171875 438.33203125 C-75.06103271 438.22700287 -74.36034668 438.12197449 -73.63842773 438.01376343 C-50.41355011 434.67091609 -27.53790182 434.09478613 -4 433 C-4 295.06 -4 157.12 -4 15 C-4.33 15 -4.66 15 -5 15 Z " fill="#1E293C" transform="translate(1174,658)"/>
<path d="M0 0 C0.22928264 38.02205817 0.40529569 76.04401154 0.51065329 114.0666221 C0.52315918 118.56354021 0.53610252 123.06045696 0.54931641 127.55737305 C0.55193951 128.4525642 0.55456261 129.34775534 0.55726521 130.2700735 C0.60068534 144.73276981 0.67947883 159.19506544 0.77152796 173.65752468 C0.86530412 188.51612447 0.92064256 203.37451556 0.94088495 218.23339909 C0.95455279 227.38986496 0.99759282 236.545198 1.07916467 245.70131483 C1.13234799 251.99452716 1.14792907 258.28716067 1.13501377 264.58058099 C1.1286574 268.20286131 1.13784369 271.82317389 1.19205475 275.44509697 C1.42487323 291.80424106 0.51256236 304.37273402 -8.78819203 318.18365324 C-10.5555579 320.83271098 -12.07482418 323.59407562 -13.625 326.375 C-14.74262526 328.25440517 -15.86767837 330.12941246 -17 332 C-17.93368408 333.54796265 -17.93368408 333.54796265 -18.88623047 335.12719727 C-38.41883578 367.18965353 -60.58081584 397.56856547 -84.90576172 426.15185547 C-87.90750674 429.68462172 -90.84174726 433.26441412 -93.75 436.875 C-96.73454602 440.54461086 -99.81476265 443.9490691 -103.22447205 447.223526 C-104.96842629 448.96840947 -106.56664359 450.77673625 -108.16625977 452.65405273 C-112.15980839 457.24717567 -116.40679579 461.55093391 -120.71484375 465.84765625 C-121.52941544 466.66318466 -122.34398712 467.47871307 -123.1832428 468.31895447 C-124.89559193 470.03198008 -126.60918842 471.74375965 -128.32397461 473.4543457 C-130.93002015 476.05503552 -133.53068522 478.66101956 -136.13085938 481.26757812 C-137.80436699 482.94042486 -139.47818482 484.61296134 -141.15234375 486.28515625 C-141.9202977 487.05513443 -142.68825165 487.82511261 -143.47947693 488.61842346 C-147.60291976 492.72424438 -151.80550208 496.67348998 -156.22344971 500.46156311 C-159.1681477 503.01157931 -161.97952004 505.70240828 -164.8125 508.375 C-169.85565818 513.09873109 -175.02690976 517.56834291 -180.421875 521.890625 C-183.0242629 524.01985146 -185.51575502 526.23449357 -188 528.5 C-193.17546974 533.20423388 -198.5514389 537.61715487 -204 542 C-205.10956783 542.90210662 -206.21893441 543.80446083 -207.328125 544.70703125 C-217.67209519 553.08995115 -228.29364212 561.08724965 -239 569 C-239.74620605 569.55300781 -240.49241211 570.10601563 -241.26123047 570.67578125 C-267.68807358 590.20634096 -295.4951199 607.68720722 -324 624 C-324.78697266 624.45084961 -325.57394531 624.90169922 -326.38476562 625.36621094 C-353.89052798 641.05404779 -382.34961377 655.16884986 -411.375 667.8125 C-412.52524658 668.31531494 -413.67549316 668.81812988 -414.8605957 669.33618164 C-432.92860523 677.11297788 -451.42503254 683.61612931 -470.06610107 689.86865234 C-476.19811522 691.92566236 -482.32569267 693.99579473 -488.453125 696.06640625 C-489.6798996 696.48076935 -490.90667419 696.89513245 -492.17062378 697.322052 C-505.7073191 701.90240536 -519.19650711 706.61698899 -532.67431641 711.36743164 C-540.40566083 714.0874791 -548.1146103 716.75162004 -556 719 C-556 718.34 -556 717.68 -556 717 C-555.34 717 -554.68 717 -554 717 C-554.00092179 716.1956807 -554.00184359 715.39136141 -554.00279331 714.5626688 C-554.03262405 688.06261809 -554.05158062 661.56256518 -554.0625 635.0625 C-554.0629343 634.0366127 -554.06336861 633.0107254 -554.06381607 631.95375061 C-554.08273562 585.94659009 -554.08843266 539.93989408 -553.77734375 493.93359375 C-553.77202542 493.14178569 -553.7667071 492.34997764 -553.76122761 491.5341754 C-553.64842608 474.8313644 -553.51363422 458.12883983 -553.35254383 441.42642617 C-553.29077057 434.97571595 -553.23262377 428.52497408 -553.17578125 422.07421875 C-553.16961005 421.38453145 -553.16343885 420.69484414 -553.15708065 419.98425722 C-552.99196446 401.36400992 -553.01974517 382.7550333 -553.30399704 364.13568497 C-553.3545869 360.70434404 -553.39773573 357.27299987 -553.43789673 353.84152222 C-553.45085093 352.74730391 -553.46380512 351.65308559 -553.47715187 350.52570915 C-553.50257001 348.37315117 -553.52772023 346.22059001 -553.55258751 344.06802559 C-553.62755729 338.06040285 -553.75632288 332.05731825 -553.93149853 326.05182362 C-554.02436323 322.47093983 -554.06830458 318.89065525 -554.09908485 315.30875206 C-554.12355954 313.6980511 -554.16885909 312.087486 -554.23833275 310.47809792 C-554.63352832 301.1435885 -553.57130609 295.42154771 -547.21801758 288.3034668 C-545.66638763 286.67123651 -544.08815883 285.0766105 -542.47991371 283.5002346 C-540.25362301 281.24337441 -538.3350672 278.80304857 -536.375 276.3125 C-532.52188823 271.56591304 -528.46575457 267.04232361 -524.328125 262.54296875 C-522.39305738 260.42932946 -520.49791703 258.29340152 -518.625 256.125 C-511.14229902 247.53309864 -503.34150869 239.2694831 -495.234375 231.265625 C-493.21338003 229.21636436 -491.31131051 227.12074711 -489.4375 224.9375 C-483.83441781 218.41372356 -477.68847269 212.53395071 -471.1640625 206.9453125 C-468.51022144 204.55972974 -466.00545125 202.03881165 -463.5 199.5 C-459.1617954 195.1162538 -454.69332626 190.99830789 -450 187 C-448.85183823 186.00117859 -447.70481098 185.00105231 -446.55859375 184 C-439.14590199 177.53089739 -431.68768103 171.14216798 -424 165 C-423.41041504 164.52046875 -422.82083008 164.0409375 -422.21337891 163.546875 C-394.97291315 141.43153078 -364.88997211 124.32832952 -333.92773438 108.06591797 C-330.39926732 106.21213216 -326.87877147 104.34361213 -323.359375 102.47265625 C-309.30443519 95.03552815 -295.02545491 88.18908689 -280.54736328 81.61621094 C-277.07453874 80.03396053 -273.61294541 78.42908884 -270.15234375 76.8203125 C-189.30879982 39.52944245 -100.82936748 17.11614554 -13.5 1.22265625 C-12.82380615 1.09652451 -12.1476123 0.97039276 -11.45092773 0.84043884 C-7.57866805 0.15421834 -3.92449021 -0.04414793 0 0 Z M-12.8046875 5.8828125 C-13.7647168 6.0772998 -14.72474609 6.27178711 -15.71386719 6.47216797 C-16.75704102 6.68760254 -17.80021484 6.90303711 -18.875 7.125 C-21.14835823 7.58893027 -23.4217993 8.05245478 -25.6953125 8.515625 C-26.8905957 8.75990234 -28.08587891 9.00417969 -29.31738281 9.25585938 C-32.97662885 9.99527743 -36.63958103 10.71212112 -40.3046875 11.421875 C-56.43616553 14.55923098 -72.40240359 18.14747472 -88.3515625 22.10449219 C-92.08378719 23.02056554 -95.82169918 23.90870428 -99.5625 24.7890625 C-111.89336599 27.6980542 -124.08905596 30.77748726 -136.1875 34.5390625 C-141.39982587 36.14963679 -146.66502787 37.53934925 -151.9375 38.9375 C-161.05618491 41.37307028 -169.98541665 44.22399125 -178.91015625 47.2890625 C-182.63542187 48.56355377 -186.38255802 49.73134095 -190.15234375 50.8671875 C-197.69062879 53.17047588 -205.09736517 55.79993759 -212.5 58.5 C-213.21076691 58.7587793 -213.92153381 59.01755859 -214.65383911 59.28417969 C-238.61202309 68.03123578 -261.96105426 78.05979398 -285 89 C-286.72404053 89.81573486 -286.72404053 89.81573486 -288.48291016 90.64794922 C-314.01561192 102.75562838 -339.14705261 115.52872977 -363.63476562 129.6484375 C-365.68723607 130.82127775 -367.75038404 131.96653639 -369.828125 133.09375 C-403.35666329 151.49545939 -433.38349461 178.03921492 -461.06884766 204.18212891 C-463.05299381 206.0498852 -465.04663996 207.90699392 -467.04296875 209.76171875 C-482.78768723 224.34740148 -482.78768723 224.34740148 -497.328125 240.109375 C-499.29754029 242.33647079 -501.38374342 244.41214954 -503.5 246.5 C-506.84933729 249.80986698 -509.99925956 253.20746949 -513.0625 256.78125 C-514.9857634 258.9836968 -516.96045744 261.13257855 -518.94946289 263.27563477 C-523.69297919 268.38959865 -528.21581505 273.61301417 -532.58984375 279.05078125 C-536.01286308 283.23940295 -539.55335365 287.32446437 -543.10327148 291.40576172 C-547.51346746 296.50439615 -548.16841417 299.22424876 -548.28990173 305.8230896 C-548.30863016 306.65514868 -548.32735858 307.48720776 -548.34665453 308.34448075 C-548.40857821 311.19880422 -548.46237055 314.05321256 -548.51538086 316.90771484 C-548.53561369 317.9238551 -548.55584652 318.93999536 -548.57669246 319.98692775 C-549.18803464 350.84110655 -549.41372205 381.70178279 -549.68416876 412.56039879 C-549.76278703 421.52229722 -549.84450536 430.48416675 -549.92625164 439.4460371 C-550.07226656 455.46546874 -550.21551895 471.48492383 -550.35717773 487.50439453 C-550.49364025 502.93605565 -550.63225893 518.36769547 -550.77319336 533.79931641 C-550.95282117 553.46816494 -551.13049731 573.13703019 -551.30662687 592.80591036 C-551.36221369 599.00724533 -551.41847218 605.208574 -551.47497749 611.40990067 C-551.54401853 618.99112215 -551.61176439 626.57235408 -551.67802257 634.15360041 C-551.711649 637.9984246 -551.74573324 641.84324283 -551.78133202 645.68804932 C-551.98545942 667.79244451 -552.03182104 689.89470641 -552 712 C-548.64760688 711.35068661 -545.48366649 710.57199454 -542.24951172 709.47216797 C-541.32601425 709.15973648 -540.40251678 708.84730499 -539.45103455 708.52540588 C-537.95546776 708.01396278 -537.95546776 708.01396278 -536.4296875 707.4921875 C-535.37644791 707.13458847 -534.32320831 706.77698944 -533.23805237 706.40855408 C-529.78254794 705.23406219 -526.32871864 704.0547319 -522.875 702.875 C-520.48057496 702.05941603 -518.08612486 701.24390563 -515.69165039 700.4284668 C-496.47001479 693.87473983 -477.27552793 687.2419921 -458.12068176 680.49537659 C-454.07759219 679.07206175 -450.02961135 677.66672577 -445.9699707 676.29125977 C-434.8167127 672.49262716 -424.04084435 668.17734372 -413.3125 663.3125 C-411.74328666 662.60747445 -410.17394859 661.90272647 -408.60449219 661.19824219 C-395.6272997 655.35502179 -382.77060442 649.28241718 -370 643 C-369.00645508 642.51611816 -368.01291016 642.03223633 -366.98925781 641.53369141 C-353.04179838 634.73894737 -339.40774992 627.52662196 -325.99121094 619.73486328 C-323.97977638 618.56825751 -321.96472388 617.40786973 -319.94628906 616.25341797 C-305.33319914 607.89232013 -291.18714932 598.97211068 -277.1875 589.625 C-276.4319986 589.12084564 -275.67649719 588.61669128 -274.89810181 588.09725952 C-262.46585006 579.7842917 -250.19284639 571.25599872 -238.25 562.25 C-237.27293091 561.51438843 -237.27293091 561.51438843 -236.27612305 560.76391602 C-224.61013136 551.9525896 -213.04635144 543.04592778 -201.953125 533.51953125 C-199.10764343 531.09183864 -196.22080717 528.7268294 -193.3125 526.375 C-188.86096192 522.75165505 -184.57617545 518.98036128 -180.33203125 515.1171875 C-178.24176111 513.21948831 -176.13013885 511.35266585 -174 509.5 C-169.28446863 505.38685188 -164.63599287 501.20243361 -160 497 C-159.11513916 496.20198975 -158.23027832 495.40397949 -157.31860352 494.58178711 C-148.00043707 486.08856589 -139.07143093 477.22420161 -130.16845703 468.29882812 C-127.6121407 465.73711354 -125.05047071 463.18083894 -122.48828125 460.625 C-120.83822067 458.97427914 -119.18847002 457.3232484 -117.5390625 455.671875 C-116.40762314 454.54347198 -116.40762314 454.54347198 -115.25332642 453.39227295 C-110.63480672 448.75348552 -106.26648479 443.96270865 -102 439 C-100.54554483 437.39231627 -99.08779105 435.78760285 -97.625 434.1875 C-93.77949818 429.92119411 -90.10268734 425.548307 -86.4921875 421.08203125 C-84.69606391 418.86080631 -82.88991464 416.65099623 -81.0703125 414.44921875 C-56.15480466 384.20766791 -33.98348187 351.79730266 -14.5 317.8125 C-14.01998535 316.97638184 -13.5399707 316.14026367 -13.04541016 315.27880859 C-12.15358223 313.70800024 -11.27263314 312.13093693 -10.40557975 310.54631889 C-9.51930228 308.94075715 -8.60966072 307.34766883 -7.66798908 305.77395642 C-3.84918275 298.98252212 -3.29777809 293.37419103 -3.39872742 285.67404175 C-3.39231923 283.86650411 -3.39231923 283.86650411 -3.38578159 282.02245057 C-3.37900612 278.7038231 -3.39448839 275.38669307 -3.41967189 272.0682478 C-3.44137366 268.48011643 -3.43394965 264.89202685 -3.43016052 261.30384827 C-3.42754563 255.09588678 -3.44316078 248.88818916 -3.47134972 242.68029404 C-3.51207874 233.70489585 -3.52501652 224.72962455 -3.53128967 215.75414397 C-3.54221815 201.19019042 -3.57545297 186.62637734 -3.62280273 172.0625 C-3.66873585 157.91960348 -3.70410937 143.77674517 -3.7253418 129.63378906 C-3.72665541 128.76122659 -3.72796903 127.88866412 -3.72932246 126.98966037 C-3.7358479 122.61203407 -3.74216638 118.23440751 -3.74838197 113.85678077 C-3.8001699 77.57108804 -3.88819565 41.28555498 -4 5 C-7.23673086 5 -9.68461903 5.24315333 -12.8046875 5.8828125 Z " fill="#0075F2" transform="translate(1156,322)"/>
<path d="M0 0 C2.07447648 -0.00237469 4.1489302 -0.00768076 6.22340012 -0.01329041 C31.66469086 -0.06367886 57.01984282 1.11456841 82.30692673 3.99757385 C83.37934616 4.11821198 83.37934616 4.11821198 84.47343063 4.24128723 C166.28648455 13.53963167 166.28648455 13.53963167 173.05692673 20.31007385 C173.15063297 22.08999309 173.17436944 23.87364125 173.17045212 25.65602112 C173.17037659 26.79712845 173.17030106 27.93823578 173.17022324 29.11392212 C173.16506195 30.35556625 173.15990067 31.59721039 173.15458298 32.8764801 C173.15316803 34.14023972 173.15175308 35.40399933 173.15029526 36.70605469 C173.14563255 40.07132274 173.13664153 43.43652375 173.12559128 46.80177307 C173.11537519 50.23357055 173.11079721 53.66537494 173.10575485 57.09718323 C173.09470053 63.8348321 173.07794383 70.5724491 173.05692673 77.31007385 C168.7332115 76.61884557 164.6231451 75.68620949 160.40848923 74.4936676 C151.17925707 71.96556125 141.83080674 70.1457095 132.43192673 68.37257385 C131.52263412 68.2002121 130.61334152 68.02785034 129.6764946 67.8502655 C83.3600445 59.11992831 36.22029622 54.4492149 -10.94307327 55.31007385 C-11.9258223 55.32795959 -12.90857132 55.34584534 -13.92110062 55.36427307 C-96.97268975 57.14070831 -179.53360801 75.38564837 -311.94307327 137.31007385 C-312.81673538 137.79588928 -313.69039749 138.28170471 -314.59053421 138.78224182 C-334.02432757 149.59766457 -352.79372928 161.4553925 -370.94307327 174.31007385 C-371.66978226 174.82424866 -372.39649124 175.33842346 -373.14522171 175.86817932 C-383.30013984 183.07622249 -393.24617716 190.49672542 -402.94307327 198.31007385 C-404.33719437 199.42962463 -404.33719437 199.42962463 -405.75947952 200.5717926 C-416.52224502 209.29793581 -427.00448257 218.33291565 -437.16572952 227.7514801 C-439.62438737 230.01648839 -442.11942256 232.22881833 -444.63057327 234.43507385 C-449.58328238 238.87627365 -454.29423154 243.55235514 -459.00557327 248.24757385 C-459.76893997 249.00634827 -460.53230667 249.76512268 -461.31880569 250.54689026 C-462.38772049 251.61882629 -462.38772049 251.61882629 -463.47822952 252.7124176 C-464.12155228 253.35686829 -464.76487503 254.00131897 -465.42769241 254.66529846 C-467.02890028 256.25076861 -467.02890028 256.25076861 -467.94307327 258.31007385 C-475.19813237 257.02521069 -482.11984027 255.15486182 -489.13057327 252.90382385 C-490.15489456 252.57845642 -491.17921585 252.25308899 -492.23457718 251.91786194 C-494.37996365 251.2347102 -496.52448693 250.54884219 -498.66817093 249.86036682 C-501.95893309 248.80498746 -505.25349282 247.76213709 -508.54854202 246.7202301 C-510.63862405 246.0530073 -512.72847637 245.38506441 -514.81807327 244.71632385 C-515.80444778 244.40481384 -516.7908223 244.09330383 -517.80708694 243.77235413 C-519.16990799 243.33179688 -519.16990799 243.33179688 -520.56026077 242.88233948 C-521.36060745 242.62633972 -522.16095413 242.37033997 -522.98555374 242.10658264 C-524.94307327 241.31007385 -524.94307327 241.31007385 -526.94307327 239.31007385 C-525.3600663 237.58060757 -523.77666285 235.85150658 -522.19307327 234.12257385 C-521.31135452 233.15964417 -520.42963577 232.19671448 -519.52119827 231.2046051 C-518.98784866 230.62484924 -518.45449905 230.04509338 -517.90498734 229.44776917 C-516.40244688 227.81060587 -514.90542283 226.16837824 -513.41084671 224.52394104 C-506.03471002 216.43676605 -498.41175921 208.62322023 -490.65987015 200.89649963 C-488.67757083 198.91961375 -486.70074694 196.93736347 -484.72432327 194.9546051 C-478.63522298 188.86197617 -472.5545616 182.84162113 -465.94307327 177.31007385 C-464.84795888 176.36112529 -463.75418217 175.41063055 -462.66182327 174.45851135 C-447.56776845 161.42273673 -431.99416654 149.14688245 -415.94307327 137.31007385 C-415.17704788 136.74256409 -414.41102249 136.17505432 -413.62178421 135.59034729 C-402.02847735 127.0174417 -390.12387533 119.02272782 -377.94307327 111.31007385 C-377.09873734 110.77382385 -376.2544014 110.23757385 -375.38447952 109.68507385 C-354.50992706 96.46770121 -332.99163619 84.45252226 -310.94307327 73.31007385 C-309.87444046 72.76770081 -308.80580765 72.22532776 -307.70479202 71.66651917 C-237.27642099 36.14487568 -159.46911899 13.2019094 -73.0153389 3.52296448 C-70.91631264 3.30732464 -68.81841485 3.08235358 -66.72041702 2.85694885 C-44.5109843 0.51857791 -22.31476029 0.02173301 0 0 Z M-81.59529495 8.98719788 C-84.02155333 9.32086675 -86.44935797 9.64093247 -88.87764359 9.95948792 C-174.40858889 21.31830457 -259.36894692 48.06121245 -334.46602249 90.89942932 C-337.02374139 92.35601318 -339.59356058 93.78933887 -342.16572952 95.2202301 C-355.06708976 102.44131868 -367.55490117 110.24469429 -379.94307327 118.31007385 C-380.55473343 118.70678284 -381.16639359 119.10349182 -381.7965889 119.51222229 C-415.29089076 141.28965299 -446.99692792 166.32359818 -476.14326859 193.62794495 C-478.16158563 195.51429932 -480.18915319 197.39047206 -482.21651077 199.2671051 C-488.93824042 205.51160004 -495.59818192 211.71061942 -501.60713577 218.6577301 C-503.56269008 220.87816718 -505.55617177 223.03470673 -507.59151077 225.1811676 C-508.23644485 225.86235657 -508.88137894 226.54354553 -509.54585648 227.24537659 C-510.83513159 228.60371714 -512.12785122 229.95879802 -513.42427444 231.31031799 C-514.00926712 231.92898743 -514.5942598 232.54765686 -515.19697952 233.18507385 C-515.72622025 233.73937073 -516.25546097 234.2936676 -516.80073929 234.86476135 C-518.149766 236.26454688 -518.149766 236.26454688 -517.94307327 238.31007385 C-513.90933137 239.66302993 -509.87487385 241.01382593 -505.83980179 242.36280823 C-504.4734027 242.8199285 -503.10718506 243.27759156 -501.74116898 243.7358551 C-497.14706238 245.27679854 -492.54781347 246.80120741 -487.94307327 248.31007385 C-486.71765823 248.71290588 -485.49224319 249.11573792 -484.22969437 249.53077698 C-482.51580521 250.07895081 -482.51580521 250.07895081 -480.76729202 250.63819885 C-479.25848465 251.12401428 -479.25848465 251.12401428 -477.71919632 251.61964417 C-474.8512425 252.33291243 -472.86717086 252.77546989 -469.94307327 252.31007385 C-467.35690053 250.39850785 -467.35690053 250.39850785 -464.92354202 247.7436676 C-464.23014473 247.03610069 -464.23014473 247.03610069 -463.52273941 246.3142395 C-462.04641339 244.80339555 -460.58812399 243.27651875 -459.13057327 241.74757385 C-457.2121885 239.76242916 -455.28714912 237.78381728 -453.36104202 235.8061676 C-452.89428558 235.32486389 -452.42752914 234.84356018 -451.94662857 234.34767151 C-448.6673371 230.98715058 -445.26649508 227.84377101 -441.69282913 224.80152893 C-439.09806305 222.58980492 -436.62538782 220.25891509 -434.13057327 217.93507385 C-428.5864934 212.81947965 -422.82286337 208.03666641 -416.94307327 203.31007385 C-415.71417308 202.30222069 -414.48637534 201.2930223 -413.25947952 200.2827301 C-346.34778589 145.29146686 -265.2407351 98.75309093 -181.04170609 76.86134338 C-177.84716498 76.02220031 -174.67863106 75.10212242 -171.50557327 74.18507385 C-170.48366898 73.89382629 -169.46176468 73.60257874 -168.40889359 73.30250549 C-166.18619329 72.66603912 -163.96544672 72.022686 -161.74727249 71.37062073 C-90.39452786 50.5423096 -12.69545074 46.59173987 61.05692673 53.31007385 C62.16100876 53.40127502 63.26509079 53.4924762 64.40262985 53.58644104 C97.37455566 56.34539549 130.13474878 62.44452526 162.36942673 69.77857971 C165.09083482 70.40707771 165.09083482 70.40707771 168.05692673 70.31007385 C168.05692673 54.80007385 168.05692673 39.29007385 168.05692673 23.31007385 C141.38061177 17.36664617 114.74582661 12.87973458 87.61942673 9.62257385 C86.76975327 9.51984161 85.9200798 9.41710937 85.04465866 9.31126404 C79.93009179 8.69776134 74.81271112 8.12281892 69.68943405 7.58680725 C67.94916416 7.40386728 66.20943261 7.21572341 64.47031784 7.02210999 C43.96476459 4.77736985 23.40728377 4.91138478 2.80692673 4.93507385 C1.88639008 4.93531303 0.96585342 4.93555222 0.01742172 4.93579865 C-27.32694144 4.94478749 -54.45965396 5.24854774 -81.59529495 8.98719788 Z " fill="#1E293C" transform="translate(704.9430732727051,57.68992614746094)"/>
<path d="M0 0 C26.41850719 23.54863959 43.63311781 54.14789871 45.78466797 90.00048828 C47.35133782 126.60595691 35.94033295 159.56669671 11.28173828 186.82470703 C-11.53778022 211.53459985 -43.38650612 225.48659155 -76.84130859 227.25830078 C-112.73883598 228.4136076 -146.5052745 215.43748836 -172.70654297 190.95654297 C-195.19129616 169.16929749 -209.72571285 138.11000353 -210.61328125 106.69921875 C-211.17645464 68.28473225 -200.41408553 35.51157351 -173.44140625 7.3515625 C-127.0665175 -39.2358462 -50.15044025 -41.65455975 0 0 Z M-176.41845703 17.59301758 C-190.89492444 34.28462269 -199.70930407 53.878677 -204.375 75.33984375 C-204.74238281 76.84998047 -204.74238281 76.84998047 -205.1171875 78.390625 C-211.58928198 109.02225026 -201.84901953 140.80927955 -186.125 166.96484375 C-167.98512589 194.40191985 -139.62406131 213.33665631 -107.5625 220.08984375 C-73.89174765 226.25932943 -41.45329868 220.06480091 -12.875 201.09765625 C12.64155538 183.15632825 29.8797561 158.55920368 37.625 128.33984375 C37.89183594 127.3048877 37.89183594 127.3048877 38.1640625 126.24902344 C42.24713858 109.56836144 42.63965203 90.02512926 38.625 73.33984375 C38.45790527 72.60443359 38.29081055 71.86902344 38.11865234 71.11132812 C30.98501357 40.4469674 12.55501028 12.52896677 -14.109375 -4.7109375 C-67.80099015 -36.7589231 -133.84429528 -29.60343794 -176.41845703 17.59301758 Z " fill="#019BF4" transform="translate(1127.375,29.66015625)"/>
<path d="M0 0 C5 0 5 0 6.69213867 1.41821289 C7.1997876 2.0755542 7.70743652 2.73289551 8.23046875 3.41015625 C12.29398589 8.40505662 16.75103636 12.89834181 21.3125 17.4375 C22.12267578 18.25154297 22.93285156 19.06558594 23.76757812 19.90429688 C24.92870117 21.06348633 24.92870117 21.06348633 26.11328125 22.24609375 C26.81235596 22.94404053 27.51143066 23.6419873 28.23168945 24.36108398 C29.91392168 26.07362678 29.91392168 26.07362678 32 27 C32 28.65 32 30.3 32 32 C21.44 32 10.88 32 0 32 C0 21.44 0 10.88 0 0 Z " fill="#45B5FC" transform="translate(46,1057)"/>
<path d="M0 0 C1.65 0 3.3 0 5 0 C5 8.91 5 17.82 5 27 C13.91 27 22.82 27 32 27 C32 28.65 32 30.3 32 32 C21.44 32 10.88 32 0 32 C0 21.44 0 10.88 0 0 Z " fill="#049CF4" transform="translate(46,1057)"/>
</svg>
